<svg xmlns="http://www.w3.org/2000/svg" version="1.1" xmlns:xlink="http://www.w3.org/1999/xlink" xmlns:svgjs="http://svgjs.com/svgjs" width="1440" height="560" preserveAspectRatio="none" viewBox="0 0 1440 560">
    <g mask="url(&quot;#SvgjsMask1162&quot;)" fill="none">
        <path d="M-106.99 373.19L-106.99 373.19" stroke="rgba(30, 235, 242, 0.08)" stroke-width="1.5"></path>
        <path d="M-106.99 373.19L49.8 343.54" stroke="rgba(30, 235, 242, 0.08)" stroke-width="1.5"></path>
        <path d="M-106.99 373.19L-56.85 555.9" stroke="rgba(30, 235, 242, 0.08)" stroke-width="1.5"></path>
        <path d="M-106.99 373.19L92.1 529.41" stroke="rgba(30, 235, 242, 0.08)" stroke-width="1.5"></path>
        <path d="M-106.99 373.19L-60.57 683.83" stroke="rgba(30, 235, 242, 0.08)" stroke-width="1.5"></path>
        <path d="M-106.99 373.19L197.58 495.18" stroke="rgba(30, 235, 242, 0.08)" stroke-width="1.5"></path>
        <path d="M-56.85 555.9L-56.85 555.9" stroke="rgba(30, 235, 242, 0.08)" stroke-width="1.5"></path>
        <path d="M-56.85 555.9L-60.57 683.83" stroke="rgba(30, 235, 242, 0.08)" stroke-width="1.5"></path>
        <path d="M-56.85 555.9L92.1 529.41" stroke="rgba(30, 235, 242, 0.08)" stroke-width="1.5"></path>
        <path d="M-56.85 555.9L86.74 683.92" stroke="rgba(30, 235, 242, 0.08)" stroke-width="1.5"></path>
        <path d="M-56.85 555.9L49.8 343.54" stroke="rgba(30, 235, 242, 0.08)" stroke-width="1.5"></path>
        <path d="M-60.57 683.83L-60.57 683.83" stroke="rgba(30, 235, 242, 0.08)" stroke-width="1.5"></path>
        <path d="M-60.57 683.83L86.74 683.92" stroke="rgba(30, 235, 242, 0.08)" stroke-width="1.5"></path>
        <path d="M-60.57 683.83L92.1 529.41" stroke="rgba(30, 235, 242, 0.08)" stroke-width="1.5"></path>
        <path d="M49.8 343.54L49.8 343.54" stroke="rgba(30, 235, 242, 0.08)" stroke-width="1.5"></path>
        <path d="M49.8 343.54L92.1 529.41" stroke="rgba(30, 235, 242, 0.08)" stroke-width="1.5"></path>
        <path d="M49.8 343.54L256.89 381.24" stroke="rgba(30, 235, 242, 0.08)" stroke-width="1.5"></path>
        <path d="M49.8 343.54L197.58 495.18" stroke="rgba(30, 235, 242, 0.08)" stroke-width="1.5"></path>
        <path d="M92.1 529.41L92.1 529.41" stroke="rgba(30, 235, 242, 0.08)" stroke-width="1.5"></path>
        <path d="M92.1 529.41L197.58 495.18" stroke="rgba(30, 235, 242, 0.08)" stroke-width="1.5"></path>
        <path d="M92.1 529.41L86.74 683.92" stroke="rgba(30, 235, 242, 0.08)" stroke-width="1.5"></path>
        <path d="M86.74 683.92L86.74 683.92" stroke="rgba(30, 235, 242, 0.08)" stroke-width="1.5"></path>
        <path d="M86.74 683.92L246.18 704.26" stroke="rgba(30, 235, 242, 0.08)" stroke-width="1.5"></path>
        <path d="M256.89 381.24L256.89 381.24" stroke="rgba(30, 235, 242, 0.08)" stroke-width="1.5"></path>
        <path d="M256.89 381.24L197.58 495.18" stroke="rgba(30, 235, 242, 0.08)" stroke-width="1.5"></path>
        <path d="M256.89 381.24L401.5 341.63" stroke="rgba(30, 235, 242, 0.08)" stroke-width="1.5"></path>
        <path d="M256.89 381.24L365.49 556.33" stroke="rgba(30, 235, 242, 0.08)" stroke-width="1.5"></path>
        <path d="M256.89 381.24L92.1 529.41" stroke="rgba(30, 235, 242, 0.08)" stroke-width="1.5"></path>
        <path d="M256.89 381.24L246.18 704.26" stroke="rgba(30, 235, 242, 0.08)" stroke-width="1.5"></path>
        <path d="M197.58 495.18L197.58 495.18" stroke="rgba(30, 235, 242, 0.08)" stroke-width="1.5"></path>
        <path d="M197.58 495.18L365.49 556.33" stroke="rgba(30, 235, 242, 0.08)" stroke-width="1.5"></path>
        <path d="M246.18 704.26L246.18 704.26" stroke="rgba(30, 235, 242, 0.08)" stroke-width="1.5"></path>
        <path d="M246.18 704.26L400.07 689.88" stroke="rgba(30, 235, 242, 0.08)" stroke-width="1.5"></path>
        <path d="M246.18 704.26L365.49 556.33" stroke="rgba(30, 235, 242, 0.08)" stroke-width="1.5"></path>
        <path d="M246.18 704.26L197.58 495.18" stroke="rgba(30, 235, 242, 0.08)" stroke-width="1.5"></path>
        <path d="M246.18 704.26L92.1 529.41" stroke="rgba(30, 235, 242, 0.08)" stroke-width="1.5"></path>
        <path d="M401.5 341.63L401.5 341.63" stroke="rgba(30, 235, 242, 0.08)" stroke-width="1.5"></path>
        <path d="M401.5 341.63L365.49 556.33" stroke="rgba(30, 235, 242, 0.08)" stroke-width="1.5"></path>
        <path d="M401.5 341.63L197.58 495.18" stroke="rgba(30, 235, 242, 0.08)" stroke-width="1.5"></path>
        <path d="M365.49 556.33L365.49 556.33" stroke="rgba(30, 235, 242, 0.08)" stroke-width="1.5"></path>
        <path d="M365.49 556.33L400.07 689.88" stroke="rgba(30, 235, 242, 0.08)" stroke-width="1.5"></path>
        <path d="M365.49 556.33L519.14 683.66" stroke="rgba(30, 235, 242, 0.08)" stroke-width="1.5"></path>
        <path d="M400.07 689.88L400.07 689.88" stroke="rgba(30, 235, 242, 0.08)" stroke-width="1.5"></path>
        <path d="M400.07 689.88L519.14 683.66" stroke="rgba(30, 235, 242, 0.08)" stroke-width="1.5"></path>
        <path d="M519.14 683.66L519.14 683.66" stroke="rgba(30, 235, 242, 0.08)" stroke-width="1.5"></path>
        <path d="M519.14 683.66L679.66 691.02" stroke="rgba(30, 235, 242, 0.08)" stroke-width="1.5"></path>
        <path d="M519.14 683.66L246.18 704.26" stroke="rgba(30, 235, 242, 0.08)" stroke-width="1.5"></path>
        <path d="M651.13 231.91L651.13 231.91" stroke="rgba(30, 235, 242, 0.08)" stroke-width="1.5"></path>
        <path d="M651.13 231.91L820.27 242.72" stroke="rgba(30, 235, 242, 0.08)" stroke-width="1.5"></path>
        <path d="M651.13 231.91L685.15 407.43" stroke="rgba(30, 235, 242, 0.08)" stroke-width="1.5"></path>
        <path d="M651.13 231.91L820.37 390.55" stroke="rgba(30, 235, 242, 0.08)" stroke-width="1.5"></path>
        <path d="M651.13 231.91L860.94 68.22" stroke="rgba(30, 235, 242, 0.08)" stroke-width="1.5"></path>
        <path d="M685.15 407.43L685.15 407.43" stroke="rgba(30, 235, 242, 0.08)" stroke-width="1.5"></path>
        <path d="M685.15 407.43L820.37 390.55" stroke="rgba(30, 235, 242, 0.08)" stroke-width="1.5"></path>
        <path d="M685.15 407.43L799.24 525.49" stroke="rgba(30, 235, 242, 0.08)" stroke-width="1.5"></path>
        <path d="M679.66 691.02L679.66 691.02" stroke="rgba(30, 235, 242, 0.08)" stroke-width="1.5"></path>
        <path d="M679.66 691.02L802.42 711.83" stroke="rgba(30, 235, 242, 0.08)" stroke-width="1.5"></path>
        <path d="M679.66 691.02L799.24 525.49" stroke="rgba(30, 235, 242, 0.08)" stroke-width="1.5"></path>
        <path d="M860.94 68.22L860.94 68.22" stroke="rgba(30, 235, 242, 0.08)" stroke-width="1.5"></path>
        <path d="M860.94 68.22L990.64 83.8" stroke="rgba(30, 235, 242, 0.08)" stroke-width="1.5"></path>
        <path d="M860.94 68.22L820.27 242.72" stroke="rgba(30, 235, 242, 0.08)" stroke-width="1.5"></path>
        <path d="M820.27 242.72L820.27 242.72" stroke="rgba(30, 235, 242, 0.08)" stroke-width="1.5"></path>
        <path d="M820.27 242.72L820.37 390.55" stroke="rgba(30, 235, 242, 0.08)" stroke-width="1.5"></path>
        <path d="M820.27 242.72L957.49 371.04" stroke="rgba(30, 235, 242, 0.08)" stroke-width="1.5"></path>
        <path d="M820.27 242.72L1009.5 201.28" stroke="rgba(30, 235, 242, 0.08)" stroke-width="1.5"></path>
        <path d="M820.27 242.72L685.15 407.43" stroke="rgba(30, 235, 242, 0.08)" stroke-width="1.5"></path>
        <path d="M820.37 390.55L820.37 390.55" stroke="rgba(30, 235, 242, 0.08)" stroke-width="1.5"></path>
        <path d="M820.37 390.55L799.24 525.49" stroke="rgba(30, 235, 242, 0.08)" stroke-width="1.5"></path>
        <path d="M820.37 390.55L957.49 371.04" stroke="rgba(30, 235, 242, 0.08)" stroke-width="1.5"></path>
        <path d="M799.24 525.49L799.24 525.49" stroke="rgba(30, 235, 242, 0.08)" stroke-width="1.5"></path>
        <path d="M802.42 711.83L802.42 711.83" stroke="rgba(30, 235, 242, 0.08)" stroke-width="1.5"></path>
        <path d="M802.42 711.83L962.24 663.62" stroke="rgba(30, 235, 242, 0.08)" stroke-width="1.5"></path>
        <path d="M802.42 711.83L799.24 525.49" stroke="rgba(30, 235, 242, 0.08)" stroke-width="1.5"></path>
        <path d="M802.42 711.83L519.14 683.66" stroke="rgba(30, 235, 242, 0.08)" stroke-width="1.5"></path>
        <path d="M1006.28 -86.59L1006.28 -86.59" stroke="rgba(30, 235, 242, 0.08)" stroke-width="1.5"></path>
        <path d="M1006.28 -86.59L1128.54 -45.83" stroke="rgba(30, 235, 242, 0.08)" stroke-width="1.5"></path>
        <path d="M1006.28 -86.59L990.64 83.8" stroke="rgba(30, 235, 242, 0.08)" stroke-width="1.5"></path>
        <path d="M1006.28 -86.59L860.94 68.22" stroke="rgba(30, 235, 242, 0.08)" stroke-width="1.5"></path>
        <path d="M1006.28 -86.59L1257.96 -66.16" stroke="rgba(30, 235, 242, 0.08)" stroke-width="1.5"></path>
        <path d="M1006.28 -86.59L1241.15 74" stroke="rgba(30, 235, 242, 0.08)" stroke-width="1.5"></path>
        <path d="M1006.28 -86.59L1009.5 201.28" stroke="rgba(30, 235, 242, 0.08)" stroke-width="1.5"></path>
        <path d="M990.64 83.8L990.64 83.8" stroke="rgba(30, 235, 242, 0.08)" stroke-width="1.5"></path>
        <path d="M990.64 83.8L1009.5 201.28" stroke="rgba(30, 235, 242, 0.08)" stroke-width="1.5"></path>
        <path d="M1009.5 201.28L1009.5 201.28" stroke="rgba(30, 235, 242, 0.08)" stroke-width="1.5"></path>
        <path d="M1009.5 201.28L1101.7 208.88" stroke="rgba(30, 235, 242, 0.08)" stroke-width="1.5"></path>
        <path d="M1009.5 201.28L957.49 371.04" stroke="rgba(30, 235, 242, 0.08)" stroke-width="1.5"></path>
        <path d="M957.49 371.04L957.49 371.04" stroke="rgba(30, 235, 242, 0.08)" stroke-width="1.5"></path>
        <path d="M957.49 371.04L1158.8 372.25" stroke="rgba(30, 235, 242, 0.08)" stroke-width="1.5"></path>
        <path d="M957.49 371.04L1101.7 208.88" stroke="rgba(30, 235, 242, 0.08)" stroke-width="1.5"></path>
        <path d="M962.24 663.62L962.24 663.62" stroke="rgba(30, 235, 242, 0.08)" stroke-width="1.5"></path>
        <path d="M962.24 663.62L1089.81 645.12" stroke="rgba(30, 235, 242, 0.08)" stroke-width="1.5"></path>
        <path d="M962.24 663.62L799.24 525.49" stroke="rgba(30, 235, 242, 0.08)" stroke-width="1.5"></path>
        <path d="M962.24 663.62L1140.75 542.2" stroke="rgba(30, 235, 242, 0.08)" stroke-width="1.5"></path>
        <path d="M1128.54 -45.83L1128.54 -45.83" stroke="rgba(30, 235, 242, 0.08)" stroke-width="1.5"></path>
        <path d="M1128.54 -45.83L1257.96 -66.16" stroke="rgba(30, 235, 242, 0.08)" stroke-width="1.5"></path>
        <path d="M1128.54 -45.83L1241.15 74" stroke="rgba(30, 235, 242, 0.08)" stroke-width="1.5"></path>
        <path d="M1128.54 -45.83L990.64 83.8" stroke="rgba(30, 235, 242, 0.08)" stroke-width="1.5"></path>
        <path d="M1128.54 -45.83L1101.7 208.88" stroke="rgba(30, 235, 242, 0.08)" stroke-width="1.5"></path>
        <path d="M1101.7 208.88L1101.7 208.88" stroke="rgba(30, 235, 242, 0.08)" stroke-width="1.5"></path>
        <path d="M1101.7 208.88L1261.44 244.33" stroke="rgba(30, 235, 242, 0.08)" stroke-width="1.5"></path>
        <path d="M1101.7 208.88L990.64 83.8" stroke="rgba(30, 235, 242, 0.08)" stroke-width="1.5"></path>
        <path d="M1101.7 208.88L1158.8 372.25" stroke="rgba(30, 235, 242, 0.08)" stroke-width="1.5"></path>
        <path d="M1101.7 208.88L1241.15 74" stroke="rgba(30, 235, 242, 0.08)" stroke-width="1.5"></path>
        <path d="M1158.8 372.25L1158.8 372.25" stroke="rgba(30, 235, 242, 0.08)" stroke-width="1.5"></path>
        <path d="M1158.8 372.25L1261.44 244.33" stroke="rgba(30, 235, 242, 0.08)" stroke-width="1.5"></path>
        <path d="M1158.8 372.25L1140.75 542.2" stroke="rgba(30, 235, 242, 0.08)" stroke-width="1.5"></path>
        <path d="M1140.75 542.2L1140.75 542.2" stroke="rgba(30, 235, 242, 0.08)" stroke-width="1.5"></path>
        <path d="M1140.75 542.2L1089.81 645.12" stroke="rgba(30, 235, 242, 0.08)" stroke-width="1.5"></path>
        <path d="M1140.75 542.2L1258.92 558.17" stroke="rgba(30, 235, 242, 0.08)" stroke-width="1.5"></path>
        <path d="M1140.75 542.2L1292.49 674.48" stroke="rgba(30, 235, 242, 0.08)" stroke-width="1.5"></path>
        <path d="M1089.81 645.12L1089.81 645.12" stroke="rgba(30, 235, 242, 0.08)" stroke-width="1.5"></path>
        <path d="M1089.81 645.12L1258.92 558.17" stroke="rgba(30, 235, 242, 0.08)" stroke-width="1.5"></path>
        <path d="M1089.81 645.12L1292.49 674.48" stroke="rgba(30, 235, 242, 0.08)" stroke-width="1.5"></path>
        <path d="M1257.96 -66.16L1257.96 -66.16" stroke="rgba(30, 235, 242, 0.08)" stroke-width="1.5"></path>
        <path d="M1257.96 -66.16L1241.15 74" stroke="rgba(30, 235, 242, 0.08)" stroke-width="1.5"></path>
        <path d="M1257.96 -66.16L1436.69 -40.07" stroke="rgba(30, 235, 242, 0.08)" stroke-width="1.5"></path>
        <path d="M1257.96 -66.16L990.64 83.8" stroke="rgba(30, 235, 242, 0.08)" stroke-width="1.5"></path>
        <path d="M1257.96 -66.16L1261.44 244.33" stroke="rgba(30, 235, 242, 0.08)" stroke-width="1.5"></path>
        <path d="M1241.15 74L1241.15 74" stroke="rgba(30, 235, 242, 0.08)" stroke-width="1.5"></path>
        <path d="M1241.15 74L1261.44 244.33" stroke="rgba(30, 235, 242, 0.08)" stroke-width="1.5"></path>
        <path d="M1261.44 244.33L1261.44 244.33" stroke="rgba(30, 235, 242, 0.08)" stroke-width="1.5"></path>
        <path d="M1261.44 244.33L1456.19 195.24" stroke="rgba(30, 235, 242, 0.08)" stroke-width="1.5"></path>
        <path d="M1261.44 244.33L1437.88 402.59" stroke="rgba(30, 235, 242, 0.08)" stroke-width="1.5"></path>
        <path d="M1258.92 558.17L1258.92 558.17" stroke="rgba(30, 235, 242, 0.08)" stroke-width="1.5"></path>
        <path d="M1258.92 558.17L1292.49 674.48" stroke="rgba(30, 235, 242, 0.08)" stroke-width="1.5"></path>
        <path d="M1258.92 558.17L1407.84 515.75" stroke="rgba(30, 235, 242, 0.08)" stroke-width="1.5"></path>
        <path d="M1292.49 674.48L1292.49 674.48" stroke="rgba(30, 235, 242, 0.08)" stroke-width="1.5"></path>
        <path d="M1292.49 674.48L1459.31 639.99" stroke="rgba(30, 235, 242, 0.08)" stroke-width="1.5"></path>
        <path d="M1292.49 674.48L1407.84 515.75" stroke="rgba(30, 235, 242, 0.08)" stroke-width="1.5"></path>
        <path d="M1436.69 -40.07L1436.69 -40.07" stroke="rgba(30, 235, 242, 0.08)" stroke-width="1.5"></path>
        <path d="M1436.69 -40.07L1578.09 102.03" stroke="rgba(30, 235, 242, 0.08)" stroke-width="1.5"></path>
        <path d="M1436.69 -40.07L1241.15 74" stroke="rgba(30, 235, 242, 0.08)" stroke-width="1.5"></path>
        <path d="M1436.69 -40.07L1456.19 195.24" stroke="rgba(30, 235, 242, 0.08)" stroke-width="1.5"></path>
        <path d="M1436.69 -40.07L1566.48 219.14" stroke="rgba(30, 235, 242, 0.08)" stroke-width="1.5"></path>
        <path d="M1436.69 -40.07L1128.54 -45.83" stroke="rgba(30, 235, 242, 0.08)" stroke-width="1.5"></path>
        <path d="M1456.19 195.24L1456.19 195.24" stroke="rgba(30, 235, 242, 0.08)" stroke-width="1.5"></path>
        <path d="M1456.19 195.24L1566.48 219.14" stroke="rgba(30, 235, 242, 0.08)" stroke-width="1.5"></path>
        <path d="M1456.19 195.24L1578.09 102.03" stroke="rgba(30, 235, 242, 0.08)" stroke-width="1.5"></path>
        <path d="M1456.19 195.24L1437.88 402.59" stroke="rgba(30, 235, 242, 0.08)" stroke-width="1.5"></path>
        <path d="M1456.19 195.24L1601.05 375.19" stroke="rgba(30, 235, 242, 0.08)" stroke-width="1.5"></path>
        <path d="M1437.88 402.59L1437.88 402.59" stroke="rgba(30, 235, 242, 0.08)" stroke-width="1.5"></path>
        <path d="M1437.88 402.59L1407.84 515.75" stroke="rgba(30, 235, 242, 0.08)" stroke-width="1.5"></path>
        <path d="M1437.88 402.59L1555.2 494.8" stroke="rgba(30, 235, 242, 0.08)" stroke-width="1.5"></path>
        <path d="M1437.88 402.59L1601.05 375.19" stroke="rgba(30, 235, 242, 0.08)" stroke-width="1.5"></path>
        <path d="M1437.88 402.59L1566.48 219.14" stroke="rgba(30, 235, 242, 0.08)" stroke-width="1.5"></path>
        <path d="M1407.84 515.75L1407.84 515.75" stroke="rgba(30, 235, 242, 0.08)" stroke-width="1.5"></path>
        <path d="M1407.84 515.75L1459.31 639.99" stroke="rgba(30, 235, 242, 0.08)" stroke-width="1.5"></path>
        <path d="M1407.84 515.75L1555.2 494.8" stroke="rgba(30, 235, 242, 0.08)" stroke-width="1.5"></path>
        <path d="M1459.31 639.99L1459.31 639.99" stroke="rgba(30, 235, 242, 0.08)" stroke-width="1.5"></path>
        <path d="M1459.31 639.99L1611.76 682.89" stroke="rgba(30, 235, 242, 0.08)" stroke-width="1.5"></path>
        <path d="M1459.31 639.99L1555.2 494.8" stroke="rgba(30, 235, 242, 0.08)" stroke-width="1.5"></path>
        <path d="M1459.31 639.99L1258.92 558.17" stroke="rgba(30, 235, 242, 0.08)" stroke-width="1.5"></path>
        <path d="M1459.31 639.99L1437.88 402.59" stroke="rgba(30, 235, 242, 0.08)" stroke-width="1.5"></path>
        <path d="M1578.09 102.03L1578.09 102.03" stroke="rgba(30, 235, 242, 0.08)" stroke-width="1.5"></path>
        <path d="M1578.09 102.03L1566.48 219.14" stroke="rgba(30, 235, 242, 0.08)" stroke-width="1.5"></path>
        <path d="M1578.09 102.03L1601.05 375.19" stroke="rgba(30, 235, 242, 0.08)" stroke-width="1.5"></path>
        <path d="M1566.48 219.14L1566.48 219.14" stroke="rgba(30, 235, 242, 0.08)" stroke-width="1.5"></path>
        <path d="M1601.05 375.19L1601.05 375.19" stroke="rgba(30, 235, 242, 0.08)" stroke-width="1.5"></path>
        <path d="M1601.05 375.19L1555.2 494.8" stroke="rgba(30, 235, 242, 0.08)" stroke-width="1.5"></path>
        <path d="M1601.05 375.19L1566.48 219.14" stroke="rgba(30, 235, 242, 0.08)" stroke-width="1.5"></path>
        <path d="M1601.05 375.19L1407.84 515.75" stroke="rgba(30, 235, 242, 0.08)" stroke-width="1.5"></path>
        <path d="M1555.2 494.8L1555.2 494.8" stroke="rgba(30, 235, 242, 0.08)" stroke-width="1.5"></path>
        <path d="M1555.2 494.8L1611.76 682.89" stroke="rgba(30, 235, 242, 0.08)" stroke-width="1.5"></path>
        <path d="M1611.76 682.89L1611.76 682.89" stroke="rgba(30, 235, 242, 0.08)" stroke-width="1.5"></path>
        <path d="M1611.76 682.89L1407.84 515.75" stroke="rgba(30, 235, 242, 0.08)" stroke-width="1.5"></path>
        <path d="M1611.76 682.89L1601.05 375.19" stroke="rgba(30, 235, 242, 0.08)" stroke-width="1.5"></path>
        <path d="M1611.76 682.89L1292.49 674.48" stroke="rgba(30, 235, 242, 0.08)" stroke-width="1.5"></path>
        <circle r="5" cx="-106.99" cy="373.19" fill="rgba(30, 235, 242, 0.08)"></circle>
        <circle r="5" cx="-56.85" cy="555.9" fill="rgba(30, 235, 242, 0.08)"></circle>
        <circle r="5" cx="-60.57" cy="683.83" fill="rgba(30, 235, 242, 0.08)"></circle>
        <circle r="5" cx="49.8" cy="343.54" fill="rgba(30, 235, 242, 0.08)"></circle>
        <circle r="5" cx="92.1" cy="529.41" fill="rgba(30, 235, 242, 0.08)"></circle>
        <circle r="5" cx="86.74" cy="683.92" fill="rgba(30, 235, 242, 0.08)"></circle>
        <circle r="5" cx="256.89" cy="381.24" fill="rgba(30, 235, 242, 0.08)"></circle>
        <circle r="5" cx="197.58" cy="495.18" fill="rgba(30, 235, 242, 0.08)"></circle>
        <circle r="5" cx="246.18" cy="704.26" fill="rgba(30, 235, 242, 0.08)"></circle>
        <circle r="5" cx="401.5" cy="341.63" fill="rgba(30, 235, 242, 0.08)"></circle>
        <circle r="5" cx="365.49" cy="556.33" fill="rgba(30, 235, 242, 0.08)"></circle>
        <circle r="5" cx="400.07" cy="689.88" fill="rgba(30, 235, 242, 0.08)"></circle>
        <circle r="5" cx="519.14" cy="683.66" fill="rgba(30, 235, 242, 0.08)"></circle>
        <circle r="5" cx="651.13" cy="231.91" fill="rgba(30, 235, 242, 0.08)"></circle>
        <circle r="5" cx="685.15" cy="407.43" fill="rgba(30, 235, 242, 0.08)"></circle>
        <circle r="5" cx="679.66" cy="691.02" fill="rgba(30, 235, 242, 0.08)"></circle>
        <circle r="5" cx="860.94" cy="68.22" fill="rgba(30, 235, 242, 0.08)"></circle>
        <circle r="5" cx="820.27" cy="242.72" fill="rgba(30, 235, 242, 0.08)"></circle>
        <circle r="5" cx="820.37" cy="390.55" fill="rgba(30, 235, 242, 0.08)"></circle>
        <circle r="5" cx="799.24" cy="525.49" fill="rgba(30, 235, 242, 0.08)"></circle>
        <circle r="5" cx="802.42" cy="711.83" fill="rgba(30, 235, 242, 0.08)"></circle>
        <circle r="5" cx="1006.28" cy="-86.59" fill="rgba(30, 235, 242, 0.08)"></circle>
        <circle r="5" cx="990.64" cy="83.8" fill="rgba(30, 235, 242, 0.08)"></circle>
        <circle r="5" cx="1009.5" cy="201.28" fill="rgba(30, 235, 242, 0.08)"></circle>
        <circle r="5" cx="957.49" cy="371.04" fill="rgba(30, 235, 242, 0.08)"></circle>
        <circle r="5" cx="962.24" cy="663.62" fill="rgba(30, 235, 242, 0.08)"></circle>
        <circle r="5" cx="1128.54" cy="-45.83" fill="rgba(30, 235, 242, 0.08)"></circle>
        <circle r="5" cx="1101.7" cy="208.88" fill="rgba(30, 235, 242, 0.08)"></circle>
        <circle r="5" cx="1158.8" cy="372.25" fill="rgba(30, 235, 242, 0.08)"></circle>
        <circle r="5" cx="1140.75" cy="542.2" fill="rgba(30, 235, 242, 0.08)"></circle>
        <circle r="5" cx="1089.81" cy="645.12" fill="rgba(30, 235, 242, 0.08)"></circle>
        <circle r="5" cx="1257.96" cy="-66.16" fill="rgba(30, 235, 242, 0.08)"></circle>
        <circle r="5" cx="1241.15" cy="74" fill="rgba(30, 235, 242, 0.08)"></circle>
        <circle r="5" cx="1261.44" cy="244.33" fill="rgba(30, 235, 242, 0.08)"></circle>
        <circle r="5" cx="1258.92" cy="558.17" fill="rgba(30, 235, 242, 0.08)"></circle>
        <circle r="5" cx="1292.49" cy="674.48" fill="rgba(30, 235, 242, 0.08)"></circle>
        <circle r="5" cx="1436.69" cy="-40.07" fill="rgba(30, 235, 242, 0.08)"></circle>
        <circle r="5" cx="1456.19" cy="195.24" fill="rgba(30, 235, 242, 0.08)"></circle>
        <circle r="5" cx="1437.88" cy="402.59" fill="rgba(30, 235, 242, 0.08)"></circle>
        <circle r="5" cx="1407.84" cy="515.75" fill="rgba(30, 235, 242, 0.08)"></circle>
        <circle r="5" cx="1459.31" cy="639.99" fill="rgba(30, 235, 242, 0.08)"></circle>
        <circle r="5" cx="1578.09" cy="102.03" fill="rgba(30, 235, 242, 0.08)"></circle>
        <circle r="5" cx="1566.48" cy="219.14" fill="rgba(30, 235, 242, 0.08)"></circle>
        <circle r="5" cx="1601.05" cy="375.19" fill="rgba(30, 235, 242, 0.08)"></circle>
        <circle r="5" cx="1555.2" cy="494.8" fill="rgba(30, 235, 242, 0.08)"></circle>
        <circle r="5" cx="1611.76" cy="682.89" fill="rgba(30, 235, 242, 0.08)"></circle>
        <path d="M251.57 548.55L251.57 548.55" stroke="hsla(182, 98.4%, 66.5%, 0.08)" stroke-width="1.5"></path>
        <path d="M251.57 548.55L211.27 658.79" stroke="hsla(182, 98.4%, 66.5%, 0.08)" stroke-width="1.5"></path>
        <path d="M251.57 548.55L405.86 529.55" stroke="hsla(182, 98.4%, 66.5%, 0.08)" stroke-width="1.5"></path>
        <path d="M251.57 548.55L350.75 680.64" stroke="hsla(182, 98.4%, 66.5%, 0.08)" stroke-width="1.5"></path>
        <path d="M944.67 397.36L944.67 397.36" stroke="hsla(182, 98.4%, 66.5%, 0.08)" stroke-width="1.5"></path>
        <path d="M944.67 397.36L848.13 369.69" stroke="hsla(182, 98.4%, 66.5%, 0.08)" stroke-width="1.5"></path>
        <path d="M944.67 397.36L959.58 558.3" stroke="hsla(182, 98.4%, 66.5%, 0.08)" stroke-width="1.5"></path>
        <path d="M944.67 397.36L842.06 524.98" stroke="hsla(182, 98.4%, 66.5%, 0.08)" stroke-width="1.5"></path>
        <path d="M944.67 397.36L1118.77 390.36" stroke="hsla(182, 98.4%, 66.5%, 0.08)" stroke-width="1.5"></path>
        <path d="M944.67 397.36L1097.38 490.5" stroke="hsla(182, 98.4%, 66.5%, 0.08)" stroke-width="1.5"></path>
        <path d="M944.67 397.36L822.62 641.22" stroke="hsla(182, 98.4%, 66.5%, 0.08)" stroke-width="1.5"></path>
        <path d="M1404.26 -58L1404.26 -58" stroke="hsla(182, 98.4%, 66.5%, 0.08)" stroke-width="1.5"></path>
        <path d="M1404.26 -58L1391.13 94.81" stroke="hsla(182, 98.4%, 66.5%, 0.08)" stroke-width="1.5"></path>
        <path d="M1404.26 -58L1247.29 -53.71" stroke="hsla(182, 98.4%, 66.5%, 0.08)" stroke-width="1.5"></path>
        <path d="M1404.26 -58L1269.22 55.45" stroke="hsla(182, 98.4%, 66.5%, 0.08)" stroke-width="1.5"></path>
        <path d="M1404.26 -58L1593.32 -89.64" stroke="hsla(182, 98.4%, 66.5%, 0.08)" stroke-width="1.5"></path>
        <path d="M1452.03 189.76L1452.03 189.76" stroke="hsla(182, 98.4%, 66.5%, 0.08)" stroke-width="1.5"></path>
        <path d="M1452.03 189.76L1391.13 94.81" stroke="hsla(182, 98.4%, 66.5%, 0.08)" stroke-width="1.5"></path>
        <path d="M1452.03 189.76L1546.69 76.76" stroke="hsla(182, 98.4%, 66.5%, 0.08)" stroke-width="1.5"></path>
        <path d="M1452.03 189.76L1609.38 188.55" stroke="hsla(182, 98.4%, 66.5%, 0.08)" stroke-width="1.5"></path>
        <path d="M1452.03 189.76L1285.48 194.01" stroke="hsla(182, 98.4%, 66.5%, 0.08)" stroke-width="1.5"></path>
        <path d="M1593.32 -89.64L1593.32 -89.64" stroke="hsla(182, 98.4%, 66.5%, 0.08)" stroke-width="1.5"></path>
        <path d="M1593.32 -89.64L1546.69 76.76" stroke="hsla(182, 98.4%, 66.5%, 0.08)" stroke-width="1.5"></path>
        <path d="M1593.32 -89.64L1391.13 94.81" stroke="hsla(182, 98.4%, 66.5%, 0.08)" stroke-width="1.5"></path>
        <path d="M1593.32 -89.64L1609.38 188.55" stroke="hsla(182, 98.4%, 66.5%, 0.08)" stroke-width="1.5"></path>
        <path d="M-102.12 552.55L-102.12 552.55" stroke="hsla(182, 98.4%, 66.5%, 0.08)" stroke-width="1.5"></path>
        <path d="M-102.12 552.55L-98.89 709.91" stroke="hsla(182, 98.4%, 66.5%, 0.08)" stroke-width="1.5"></path>
        <path d="M-102.12 552.55L45.29 663.86" stroke="hsla(182, 98.4%, 66.5%, 0.08)" stroke-width="1.5"></path>
        <path d="M-102.12 552.55L79.95 520.04" stroke="hsla(182, 98.4%, 66.5%, 0.08)" stroke-width="1.5"></path>
        <path d="M-102.12 552.55L211.27 658.79" stroke="hsla(182, 98.4%, 66.5%, 0.08)" stroke-width="1.5"></path>
        <path d="M-102.12 552.55L251.57 548.55" stroke="hsla(182, 98.4%, 66.5%, 0.08)" stroke-width="1.5"></path>
        <path d="M-102.12 552.55L350.75 680.64" stroke="hsla(182, 98.4%, 66.5%, 0.08)" stroke-width="1.5"></path>
        <path d="M-98.89 709.91L-98.89 709.91" stroke="hsla(182, 98.4%, 66.5%, 0.08)" stroke-width="1.5"></path>
        <path d="M-98.89 709.91L45.29 663.86" stroke="hsla(182, 98.4%, 66.5%, 0.08)" stroke-width="1.5"></path>
        <path d="M-98.89 709.91L79.95 520.04" stroke="hsla(182, 98.4%, 66.5%, 0.08)" stroke-width="1.5"></path>
        <path d="M-98.89 709.91L211.27 658.79" stroke="hsla(182, 98.4%, 66.5%, 0.08)" stroke-width="1.5"></path>
        <path d="M-98.89 709.91L251.57 548.55" stroke="hsla(182, 98.4%, 66.5%, 0.08)" stroke-width="1.5"></path>
        <path d="M-98.89 709.91L350.75 680.64" stroke="hsla(182, 98.4%, 66.5%, 0.08)" stroke-width="1.5"></path>
        <path d="M79.95 520.04L79.95 520.04" stroke="hsla(182, 98.4%, 66.5%, 0.08)" stroke-width="1.5"></path>
        <path d="M79.95 520.04L45.29 663.86" stroke="hsla(182, 98.4%, 66.5%, 0.08)" stroke-width="1.5"></path>
        <path d="M79.95 520.04L251.57 548.55" stroke="hsla(182, 98.4%, 66.5%, 0.08)" stroke-width="1.5"></path>
        <path d="M45.29 663.86L45.29 663.86" stroke="hsla(182, 98.4%, 66.5%, 0.08)" stroke-width="1.5"></path>
        <path d="M45.29 663.86L211.27 658.79" stroke="hsla(182, 98.4%, 66.5%, 0.08)" stroke-width="1.5"></path>
        <path d="M45.29 663.86L251.57 548.55" stroke="hsla(182, 98.4%, 66.5%, 0.08)" stroke-width="1.5"></path>
        <path d="M211.27 658.79L211.27 658.79" stroke="hsla(182, 98.4%, 66.5%, 0.08)" stroke-width="1.5"></path>
        <path d="M211.27 658.79L350.75 680.64" stroke="hsla(182, 98.4%, 66.5%, 0.08)" stroke-width="1.5"></path>
        <path d="M211.27 658.79L79.95 520.04" stroke="hsla(182, 98.4%, 66.5%, 0.08)" stroke-width="1.5"></path>
        <path d="M211.27 658.79L405.86 529.55" stroke="hsla(182, 98.4%, 66.5%, 0.08)" stroke-width="1.5"></path>
        <path d="M211.27 658.79L512.85 646.01" stroke="hsla(182, 98.4%, 66.5%, 0.08)" stroke-width="1.5"></path>
        <path d="M405.86 529.55L405.86 529.55" stroke="hsla(182, 98.4%, 66.5%, 0.08)" stroke-width="1.5"></path>
        <path d="M405.86 529.55L526.18 510.78" stroke="hsla(182, 98.4%, 66.5%, 0.08)" stroke-width="1.5"></path>
        <path d="M405.86 529.55L512.85 646.01" stroke="hsla(182, 98.4%, 66.5%, 0.08)" stroke-width="1.5"></path>
        <path d="M405.86 529.55L350.75 680.64" stroke="hsla(182, 98.4%, 66.5%, 0.08)" stroke-width="1.5"></path>
        <path d="M405.86 529.55L660.95 501.44" stroke="hsla(182, 98.4%, 66.5%, 0.08)" stroke-width="1.5"></path>
        <path d="M350.75 680.64L350.75 680.64" stroke="hsla(182, 98.4%, 66.5%, 0.08)" stroke-width="1.5"></path>
        <path d="M350.75 680.64L512.85 646.01" stroke="hsla(182, 98.4%, 66.5%, 0.08)" stroke-width="1.5"></path>
        <path d="M526.18 510.78L526.18 510.78" stroke="hsla(182, 98.4%, 66.5%, 0.08)" stroke-width="1.5"></path>
        <path d="M526.18 510.78L660.95 501.44" stroke="hsla(182, 98.4%, 66.5%, 0.08)" stroke-width="1.5"></path>
        <path d="M526.18 510.78L512.85 646.01" stroke="hsla(182, 98.4%, 66.5%, 0.08)" stroke-width="1.5"></path>
        <path d="M512.85 646.01L512.85 646.01" stroke="hsla(182, 98.4%, 66.5%, 0.08)" stroke-width="1.5"></path>
        <path d="M512.85 646.01L642.2 694.38" stroke="hsla(182, 98.4%, 66.5%, 0.08)" stroke-width="1.5"></path>
        <path d="M512.85 646.01L660.95 501.44" stroke="hsla(182, 98.4%, 66.5%, 0.08)" stroke-width="1.5"></path>
        <path d="M660.95 501.44L660.95 501.44" stroke="hsla(182, 98.4%, 66.5%, 0.08)" stroke-width="1.5"></path>
        <path d="M660.95 501.44L842.06 524.98" stroke="hsla(182, 98.4%, 66.5%, 0.08)" stroke-width="1.5"></path>
        <path d="M660.95 501.44L642.2 694.38" stroke="hsla(182, 98.4%, 66.5%, 0.08)" stroke-width="1.5"></path>
        <path d="M660.95 501.44L822.62 641.22" stroke="hsla(182, 98.4%, 66.5%, 0.08)" stroke-width="1.5"></path>
        <path d="M660.95 501.44L848.13 369.69" stroke="hsla(182, 98.4%, 66.5%, 0.08)" stroke-width="1.5"></path>
        <path d="M642.2 694.38L642.2 694.38" stroke="hsla(182, 98.4%, 66.5%, 0.08)" stroke-width="1.5"></path>
        <path d="M642.2 694.38L822.62 641.22" stroke="hsla(182, 98.4%, 66.5%, 0.08)" stroke-width="1.5"></path>
        <path d="M848.13 369.69L848.13 369.69" stroke="hsla(182, 98.4%, 66.5%, 0.08)" stroke-width="1.5"></path>
        <path d="M848.13 369.69L842.06 524.98" stroke="hsla(182, 98.4%, 66.5%, 0.08)" stroke-width="1.5"></path>
        <path d="M848.13 369.69L959.58 558.3" stroke="hsla(182, 98.4%, 66.5%, 0.08)" stroke-width="1.5"></path>
        <path d="M848.13 369.69L1118.77 390.36" stroke="hsla(182, 98.4%, 66.5%, 0.08)" stroke-width="1.5"></path>
        <path d="M842.06 524.98L842.06 524.98" stroke="hsla(182, 98.4%, 66.5%, 0.08)" stroke-width="1.5"></path>
        <path d="M842.06 524.98L822.62 641.22" stroke="hsla(182, 98.4%, 66.5%, 0.08)" stroke-width="1.5"></path>
        <path d="M822.62 641.22L822.62 641.22" stroke="hsla(182, 98.4%, 66.5%, 0.08)" stroke-width="1.5"></path>
        <path d="M822.62 641.22L961.66 672.75" stroke="hsla(182, 98.4%, 66.5%, 0.08)" stroke-width="1.5"></path>
        <path d="M822.62 641.22L959.58 558.3" stroke="hsla(182, 98.4%, 66.5%, 0.08)" stroke-width="1.5"></path>
        <path d="M959.58 558.3L959.58 558.3" stroke="hsla(182, 98.4%, 66.5%, 0.08)" stroke-width="1.5"></path>
        <path d="M959.58 558.3L961.66 672.75" stroke="hsla(182, 98.4%, 66.5%, 0.08)" stroke-width="1.5"></path>
        <path d="M959.58 558.3L842.06 524.98" stroke="hsla(182, 98.4%, 66.5%, 0.08)" stroke-width="1.5"></path>
        <path d="M959.58 558.3L1097.38 490.5" stroke="hsla(182, 98.4%, 66.5%, 0.08)" stroke-width="1.5"></path>
        <path d="M961.66 672.75L961.66 672.75" stroke="hsla(182, 98.4%, 66.5%, 0.08)" stroke-width="1.5"></path>
        <path d="M961.66 672.75L1147.32 707.69" stroke="hsla(182, 98.4%, 66.5%, 0.08)" stroke-width="1.5"></path>
        <path d="M961.66 672.75L842.06 524.98" stroke="hsla(182, 98.4%, 66.5%, 0.08)" stroke-width="1.5"></path>
        <path d="M961.66 672.75L1097.38 490.5" stroke="hsla(182, 98.4%, 66.5%, 0.08)" stroke-width="1.5"></path>
        <path d="M1118.77 390.36L1118.77 390.36" stroke="hsla(182, 98.4%, 66.5%, 0.08)" stroke-width="1.5"></path>
        <path d="M1118.77 390.36L1097.38 490.5" stroke="hsla(182, 98.4%, 66.5%, 0.08)" stroke-width="1.5"></path>
        <path d="M1118.77 390.36L1298.01 411.16" stroke="hsla(182, 98.4%, 66.5%, 0.08)" stroke-width="1.5"></path>
        <path d="M1118.77 390.36L959.58 558.3" stroke="hsla(182, 98.4%, 66.5%, 0.08)" stroke-width="1.5"></path>
        <path d="M1118.77 390.36L1285.48 194.01" stroke="hsla(182, 98.4%, 66.5%, 0.08)" stroke-width="1.5"></path>
        <path d="M1097.38 490.5L1097.38 490.5" stroke="hsla(182, 98.4%, 66.5%, 0.08)" stroke-width="1.5"></path>
        <path d="M1097.38 490.5L1298.01 411.16" stroke="hsla(182, 98.4%, 66.5%, 0.08)" stroke-width="1.5"></path>
        <path d="M1147.32 707.69L1147.32 707.69" stroke="hsla(182, 98.4%, 66.5%, 0.08)" stroke-width="1.5"></path>
        <path d="M1147.32 707.69L1306.88 659.82" stroke="hsla(182, 98.4%, 66.5%, 0.08)" stroke-width="1.5"></path>
        <path d="M1147.32 707.69L1097.38 490.5" stroke="hsla(182, 98.4%, 66.5%, 0.08)" stroke-width="1.5"></path>
        <path d="M1147.32 707.69L959.58 558.3" stroke="hsla(182, 98.4%, 66.5%, 0.08)" stroke-width="1.5"></path>
        <path d="M1147.32 707.69L1390.16 704.65" stroke="hsla(182, 98.4%, 66.5%, 0.08)" stroke-width="1.5"></path>
        <path d="M1147.32 707.69L1118.77 390.36" stroke="hsla(182, 98.4%, 66.5%, 0.08)" stroke-width="1.5"></path>
        <path d="M1247.29 -53.71L1247.29 -53.71" stroke="hsla(182, 98.4%, 66.5%, 0.08)" stroke-width="1.5"></path>
        <path d="M1247.29 -53.71L1269.22 55.45" stroke="hsla(182, 98.4%, 66.5%, 0.08)" stroke-width="1.5"></path>
        <path d="M1247.29 -53.71L1391.13 94.81" stroke="hsla(182, 98.4%, 66.5%, 0.08)" stroke-width="1.5"></path>
        <path d="M1269.22 55.45L1269.22 55.45" stroke="hsla(182, 98.4%, 66.5%, 0.08)" stroke-width="1.5"></path>
        <path d="M1269.22 55.45L1391.13 94.81" stroke="hsla(182, 98.4%, 66.5%, 0.08)" stroke-width="1.5"></path>
        <path d="M1269.22 55.45L1285.48 194.01" stroke="hsla(182, 98.4%, 66.5%, 0.08)" stroke-width="1.5"></path>
        <path d="M1269.22 55.45L1452.03 189.76" stroke="hsla(182, 98.4%, 66.5%, 0.08)" stroke-width="1.5"></path>
        <path d="M1285.48 194.01L1285.48 194.01" stroke="hsla(182, 98.4%, 66.5%, 0.08)" stroke-width="1.5"></path>
        <path d="M1285.48 194.01L1391.13 94.81" stroke="hsla(182, 98.4%, 66.5%, 0.08)" stroke-width="1.5"></path>
        <path d="M1298.01 411.16L1298.01 411.16" stroke="hsla(182, 98.4%, 66.5%, 0.08)" stroke-width="1.5"></path>
        <path d="M1298.01 411.16L1404.13 398.86" stroke="hsla(182, 98.4%, 66.5%, 0.08)" stroke-width="1.5"></path>
        <path d="M1298.01 411.16L1455.29 487.77" stroke="hsla(182, 98.4%, 66.5%, 0.08)" stroke-width="1.5"></path>
        <path d="M1298.01 411.16L1285.48 194.01" stroke="hsla(182, 98.4%, 66.5%, 0.08)" stroke-width="1.5"></path>
        <path d="M1306.88 659.82L1306.88 659.82" stroke="hsla(182, 98.4%, 66.5%, 0.08)" stroke-width="1.5"></path>
        <path d="M1306.88 659.82L1390.16 704.65" stroke="hsla(182, 98.4%, 66.5%, 0.08)" stroke-width="1.5"></path>
        <path d="M1306.88 659.82L1455.29 487.77" stroke="hsla(182, 98.4%, 66.5%, 0.08)" stroke-width="1.5"></path>
        <path d="M1306.88 659.82L1298.01 411.16" stroke="hsla(182, 98.4%, 66.5%, 0.08)" stroke-width="1.5"></path>
        <path d="M1306.88 659.82L1097.38 490.5" stroke="hsla(182, 98.4%, 66.5%, 0.08)" stroke-width="1.5"></path>
        <path d="M1391.13 94.81L1391.13 94.81" stroke="hsla(182, 98.4%, 66.5%, 0.08)" stroke-width="1.5"></path>
        <path d="M1391.13 94.81L1546.69 76.76" stroke="hsla(182, 98.4%, 66.5%, 0.08)" stroke-width="1.5"></path>
        <path d="M1404.13 398.86L1404.13 398.86" stroke="hsla(182, 98.4%, 66.5%, 0.08)" stroke-width="1.5"></path>
        <path d="M1404.13 398.86L1455.29 487.77" stroke="hsla(182, 98.4%, 66.5%, 0.08)" stroke-width="1.5"></path>
        <path d="M1455.29 487.77L1455.29 487.77" stroke="hsla(182, 98.4%, 66.5%, 0.08)" stroke-width="1.5"></path>
        <path d="M1455.29 487.77L1567.17 516.36" stroke="hsla(182, 98.4%, 66.5%, 0.08)" stroke-width="1.5"></path>
        <path d="M1455.29 487.77L1609.82 343.04" stroke="hsla(182, 98.4%, 66.5%, 0.08)" stroke-width="1.5"></path>
        <path d="M1455.29 487.77L1588.74 652.61" stroke="hsla(182, 98.4%, 66.5%, 0.08)" stroke-width="1.5"></path>
        <path d="M1390.16 704.65L1390.16 704.65" stroke="hsla(182, 98.4%, 66.5%, 0.08)" stroke-width="1.5"></path>
        <path d="M1390.16 704.65L1588.74 652.61" stroke="hsla(182, 98.4%, 66.5%, 0.08)" stroke-width="1.5"></path>
        <path d="M1390.16 704.65L1455.29 487.77" stroke="hsla(182, 98.4%, 66.5%, 0.08)" stroke-width="1.5"></path>
        <path d="M1546.69 76.76L1546.69 76.76" stroke="hsla(182, 98.4%, 66.5%, 0.08)" stroke-width="1.5"></path>
        <path d="M1546.69 76.76L1609.38 188.55" stroke="hsla(182, 98.4%, 66.5%, 0.08)" stroke-width="1.5"></path>
        <path d="M1546.69 76.76L1404.26 -58" stroke="hsla(182, 98.4%, 66.5%, 0.08)" stroke-width="1.5"></path>
        <path d="M1609.38 188.55L1609.38 188.55" stroke="hsla(182, 98.4%, 66.5%, 0.08)" stroke-width="1.5"></path>
        <path d="M1609.38 188.55L1609.82 343.04" stroke="hsla(182, 98.4%, 66.5%, 0.08)" stroke-width="1.5"></path>
        <path d="M1609.38 188.55L1391.13 94.81" stroke="hsla(182, 98.4%, 66.5%, 0.08)" stroke-width="1.5"></path>
        <path d="M1609.82 343.04L1609.82 343.04" stroke="hsla(182, 98.4%, 66.5%, 0.08)" stroke-width="1.5"></path>
        <path d="M1609.82 343.04L1567.17 516.36" stroke="hsla(182, 98.4%, 66.5%, 0.08)" stroke-width="1.5"></path>
        <path d="M1609.82 343.04L1404.13 398.86" stroke="hsla(182, 98.4%, 66.5%, 0.08)" stroke-width="1.5"></path>
        <path d="M1609.82 343.04L1452.03 189.76" stroke="hsla(182, 98.4%, 66.5%, 0.08)" stroke-width="1.5"></path>
        <path d="M1609.82 343.04L1546.69 76.76" stroke="hsla(182, 98.4%, 66.5%, 0.08)" stroke-width="1.5"></path>
        <path d="M1567.17 516.36L1567.17 516.36" stroke="hsla(182, 98.4%, 66.5%, 0.08)" stroke-width="1.5"></path>
        <path d="M1567.17 516.36L1588.74 652.61" stroke="hsla(182, 98.4%, 66.5%, 0.08)" stroke-width="1.5"></path>
        <path d="M1567.17 516.36L1404.13 398.86" stroke="hsla(182, 98.4%, 66.5%, 0.08)" stroke-width="1.5"></path>
        <path d="M1567.17 516.36L1390.16 704.65" stroke="hsla(182, 98.4%, 66.5%, 0.08)" stroke-width="1.5"></path>
        <path d="M1567.17 516.36L1298.01 411.16" stroke="hsla(182, 98.4%, 66.5%, 0.08)" stroke-width="1.5"></path>
        <path d="M1588.74 652.61L1588.74 652.61" stroke="hsla(182, 98.4%, 66.5%, 0.08)" stroke-width="1.5"></path>
        <circle r="25" cx="251.57" cy="548.55" fill="url(#SvgjsRadialGradient1163)"></circle>
        <circle r="25" cx="944.67" cy="397.36" fill="url(#SvgjsRadialGradient1163)"></circle>
        <circle r="25" cx="1404.26" cy="-58" fill="url(#SvgjsRadialGradient1163)"></circle>
        <circle r="25" cx="1452.03" cy="189.76" fill="url(#SvgjsRadialGradient1163)"></circle>
        <circle r="25" cx="1593.32" cy="-89.64" fill="url(#SvgjsRadialGradient1163)"></circle>
        <circle r="5" cx="-102.12" cy="552.55" fill="rgba(245, 255, 255, 0.54)"></circle>
        <circle r="5" cx="-98.89" cy="709.91" fill="rgba(245, 255, 255, 0.54)"></circle>
        <circle r="5" cx="79.95" cy="520.04" fill="rgba(245, 255, 255, 0.54)"></circle>
        <circle r="5" cx="45.29" cy="663.86" fill="rgba(245, 255, 255, 0.54)"></circle>
        <circle r="5" cx="211.27" cy="658.79" fill="rgba(245, 255, 255, 0.54)"></circle>
        <circle r="5" cx="405.86" cy="529.55" fill="rgba(245, 255, 255, 0.54)"></circle>
        <circle r="5" cx="350.75" cy="680.64" fill="rgba(245, 255, 255, 0.54)"></circle>
        <circle r="5" cx="526.18" cy="510.78" fill="rgba(245, 255, 255, 0.54)"></circle>
        <circle r="5" cx="512.85" cy="646.01" fill="rgba(245, 255, 255, 0.54)"></circle>
        <circle r="5" cx="660.95" cy="501.44" fill="rgba(245, 255, 255, 0.54)"></circle>
        <circle r="5" cx="642.2" cy="694.38" fill="rgba(245, 255, 255, 0.54)"></circle>
        <circle r="5" cx="848.13" cy="369.69" fill="rgba(245, 255, 255, 0.54)"></circle>
        <circle r="5" cx="842.06" cy="524.98" fill="rgba(245, 255, 255, 0.54)"></circle>
        <circle r="5" cx="822.62" cy="641.22" fill="rgba(245, 255, 255, 0.54)"></circle>
        <circle r="5" cx="959.58" cy="558.3" fill="rgba(245, 255, 255, 0.54)"></circle>
        <circle r="5" cx="961.66" cy="672.75" fill="rgba(245, 255, 255, 0.54)"></circle>
        <circle r="5" cx="1118.77" cy="390.36" fill="rgba(245, 255, 255, 0.54)"></circle>
        <circle r="5" cx="1097.38" cy="490.5" fill="rgba(245, 255, 255, 0.54)"></circle>
        <circle r="5" cx="1147.32" cy="707.69" fill="rgba(245, 255, 255, 0.54)"></circle>
        <circle r="5" cx="1247.29" cy="-53.71" fill="rgba(245, 255, 255, 0.54)"></circle>
        <circle r="5" cx="1269.22" cy="55.45" fill="rgba(245, 255, 255, 0.54)"></circle>
        <circle r="5" cx="1285.48" cy="194.01" fill="rgba(245, 255, 255, 0.54)"></circle>
        <circle r="5" cx="1298.01" cy="411.16" fill="rgba(245, 255, 255, 0.54)"></circle>
        <circle r="5" cx="1306.88" cy="659.82" fill="rgba(245, 255, 255, 0.54)"></circle>
        <circle r="5" cx="1391.13" cy="94.81" fill="rgba(245, 255, 255, 0.54)"></circle>
        <circle r="5" cx="1404.13" cy="398.86" fill="rgba(245, 255, 255, 0.54)"></circle>
        <circle r="5" cx="1455.29" cy="487.77" fill="rgba(245, 255, 255, 0.54)"></circle>
        <circle r="5" cx="1390.16" cy="704.65" fill="rgba(245, 255, 255, 0.54)"></circle>
        <circle r="5" cx="1546.69" cy="76.76" fill="rgba(245, 255, 255, 0.54)"></circle>
        <circle r="5" cx="1609.38" cy="188.55" fill="rgba(245, 255, 255, 0.54)"></circle>
        <circle r="5" cx="1609.82" cy="343.04" fill="rgba(245, 255, 255, 0.54)"></circle>
        <circle r="5" cx="1567.17" cy="516.36" fill="rgba(245, 255, 255, 0.54)"></circle>
        <circle r="5" cx="1588.74" cy="652.61" fill="rgba(245, 255, 255, 0.54)"></circle>
    </g>
    <defs>
        <mask id="SvgjsMask1162">
            <rect width="1440" height="560" fill="#ffffff"></rect>
        </mask>
        <radialGradient id="SvgjsRadialGradient1163">
            <stop stop-color="#ffffff" offset="0.1"></stop>
            <stop stop-color="rgba(8, 245, 253, 0.08)" offset="0.2"></stop>
            <stop stop-color="rgba(8, 245, 253, 0)" offset="1"></stop>
        </radialGradient>
    </defs>
</svg>