<svg xmlns="http://www.w3.org/2000/svg" version="1.1" xmlns:xlink="http://www.w3.org/1999/xlink" xmlns:svgjs="http://svgjs.com/svgjs" width="1440" height="560" preserveAspectRatio="none" viewBox="0 0 1440 560">
    <g mask="url(&quot;#SvgjsMask1025&quot;)" fill="none">
        <path d="M-76.15 363.76L-76.15 363.76" stroke="rgba(30, 235, 242, 1)" stroke-width="1.5"></path>
        <path d="M-76.15 363.76L72.68 401.56" stroke="rgba(30, 235, 242, 1)" stroke-width="1.5"></path>
        <path d="M-76.15 363.76L-105.11 548.99" stroke="rgba(30, 235, 242, 1)" stroke-width="1.5"></path>
        <path d="M-105.11 548.99L-105.11 548.99" stroke="rgba(30, 235, 242, 1)" stroke-width="1.5"></path>
        <path d="M-105.11 548.99L87.92 521.75" stroke="rgba(30, 235, 242, 1)" stroke-width="1.5"></path>
        <path d="M-105.11 548.99L64.86 650.89" stroke="rgba(30, 235, 242, 1)" stroke-width="1.5"></path>
        <path d="M-105.11 548.99L72.68 401.56" stroke="rgba(30, 235, 242, 1)" stroke-width="1.5"></path>
        <path d="M-105.11 548.99L237.01 522.63" stroke="rgba(30, 235, 242, 1)" stroke-width="1.5"></path>
        <path d="M-105.11 548.99L259.08 703.08" stroke="rgba(30, 235, 242, 1)" stroke-width="1.5"></path>
        <path d="M72.68 401.56L72.68 401.56" stroke="rgba(30, 235, 242, 1)" stroke-width="1.5"></path>
        <path d="M72.68 401.56L87.92 521.75" stroke="rgba(30, 235, 242, 1)" stroke-width="1.5"></path>
        <path d="M87.92 521.75L87.92 521.75" stroke="rgba(30, 235, 242, 1)" stroke-width="1.5"></path>
        <path d="M87.92 521.75L64.86 650.89" stroke="rgba(30, 235, 242, 1)" stroke-width="1.5"></path>
        <path d="M87.92 521.75L237.01 522.63" stroke="rgba(30, 235, 242, 1)" stroke-width="1.5"></path>
        <path d="M87.92 521.75L-76.15 363.76" stroke="rgba(30, 235, 242, 1)" stroke-width="1.5"></path>
        <path d="M87.92 521.75L259.08 703.08" stroke="rgba(30, 235, 242, 1)" stroke-width="1.5"></path>
        <path d="M64.86 650.89L64.86 650.89" stroke="rgba(30, 235, 242, 1)" stroke-width="1.5"></path>
        <path d="M64.86 650.89L259.08 703.08" stroke="rgba(30, 235, 242, 1)" stroke-width="1.5"></path>
        <path d="M237.01 522.63L237.01 522.63" stroke="rgba(30, 235, 242, 1)" stroke-width="1.5"></path>
        <path d="M237.01 522.63L362.26 514.64" stroke="rgba(30, 235, 242, 1)" stroke-width="1.5"></path>
        <path d="M237.01 522.63L351.46 382.7" stroke="rgba(30, 235, 242, 1)" stroke-width="1.5"></path>
        <path d="M259.08 703.08L259.08 703.08" stroke="rgba(30, 235, 242, 1)" stroke-width="1.5"></path>
        <path d="M259.08 703.08L350.33 677.26" stroke="rgba(30, 235, 242, 1)" stroke-width="1.5"></path>
        <path d="M259.08 703.08L237.01 522.63" stroke="rgba(30, 235, 242, 1)" stroke-width="1.5"></path>
        <path d="M259.08 703.08L362.26 514.64" stroke="rgba(30, 235, 242, 1)" stroke-width="1.5"></path>
        <path d="M259.08 703.08L491.91 692.68" stroke="rgba(30, 235, 242, 1)" stroke-width="1.5"></path>
        <path d="M351.46 382.7L351.46 382.7" stroke="rgba(30, 235, 242, 1)" stroke-width="1.5"></path>
        <path d="M351.46 382.7L362.26 514.64" stroke="rgba(30, 235, 242, 1)" stroke-width="1.5"></path>
        <path d="M351.46 382.7L559.88 408.33" stroke="rgba(30, 235, 242, 1)" stroke-width="1.5"></path>
        <path d="M351.46 382.7L548.04 535" stroke="rgba(30, 235, 242, 1)" stroke-width="1.5"></path>
        <path d="M351.46 382.7L72.68 401.56" stroke="rgba(30, 235, 242, 1)" stroke-width="1.5"></path>
        <path d="M362.26 514.64L362.26 514.64" stroke="rgba(30, 235, 242, 1)" stroke-width="1.5"></path>
        <path d="M362.26 514.64L350.33 677.26" stroke="rgba(30, 235, 242, 1)" stroke-width="1.5"></path>
        <path d="M362.26 514.64L548.04 535" stroke="rgba(30, 235, 242, 1)" stroke-width="1.5"></path>
        <path d="M350.33 677.26L350.33 677.26" stroke="rgba(30, 235, 242, 1)" stroke-width="1.5"></path>
        <path d="M350.33 677.26L491.91 692.68" stroke="rgba(30, 235, 242, 1)" stroke-width="1.5"></path>
        <path d="M559.88 408.33L559.88 408.33" stroke="rgba(30, 235, 242, 1)" stroke-width="1.5"></path>
        <path d="M559.88 408.33L645.96 357.51" stroke="rgba(30, 235, 242, 1)" stroke-width="1.5"></path>
        <path d="M559.88 408.33L548.04 535" stroke="rgba(30, 235, 242, 1)" stroke-width="1.5"></path>
        <path d="M559.88 408.33L694.39 260.36" stroke="rgba(30, 235, 242, 1)" stroke-width="1.5"></path>
        <path d="M548.04 535L548.04 535" stroke="rgba(30, 235, 242, 1)" stroke-width="1.5"></path>
        <path d="M548.04 535L491.91 692.68" stroke="rgba(30, 235, 242, 1)" stroke-width="1.5"></path>
        <path d="M548.04 535L672.33 677.88" stroke="rgba(30, 235, 242, 1)" stroke-width="1.5"></path>
        <path d="M491.91 692.68L491.91 692.68" stroke="rgba(30, 235, 242, 1)" stroke-width="1.5"></path>
        <path d="M491.91 692.68L672.33 677.88" stroke="rgba(30, 235, 242, 1)" stroke-width="1.5"></path>
        <path d="M491.91 692.68L362.26 514.64" stroke="rgba(30, 235, 242, 1)" stroke-width="1.5"></path>
        <path d="M694.39 260.36L694.39 260.36" stroke="rgba(30, 235, 242, 1)" stroke-width="1.5"></path>
        <path d="M694.39 260.36L645.96 357.51" stroke="rgba(30, 235, 242, 1)" stroke-width="1.5"></path>
        <path d="M694.39 260.36L820.67 215.86" stroke="rgba(30, 235, 242, 1)" stroke-width="1.5"></path>
        <path d="M645.96 357.51L645.96 357.51" stroke="rgba(30, 235, 242, 1)" stroke-width="1.5"></path>
        <path d="M645.96 357.51L798.65 375.16" stroke="rgba(30, 235, 242, 1)" stroke-width="1.5"></path>
        <path d="M645.96 357.51L548.04 535" stroke="rgba(30, 235, 242, 1)" stroke-width="1.5"></path>
        <path d="M645.96 357.51L820.67 215.86" stroke="rgba(30, 235, 242, 1)" stroke-width="1.5"></path>
        <path d="M672.33 677.88L672.33 677.88" stroke="rgba(30, 235, 242, 1)" stroke-width="1.5"></path>
        <path d="M672.33 677.88L844.59 648.34" stroke="rgba(30, 235, 242, 1)" stroke-width="1.5"></path>
        <path d="M820.67 215.86L820.67 215.86" stroke="rgba(30, 235, 242, 1)" stroke-width="1.5"></path>
        <path d="M820.67 215.86L798.65 375.16" stroke="rgba(30, 235, 242, 1)" stroke-width="1.5"></path>
        <path d="M820.67 215.86L995.57 190.98" stroke="rgba(30, 235, 242, 1)" stroke-width="1.5"></path>
        <path d="M820.67 215.86L944.04 346.95" stroke="rgba(30, 235, 242, 1)" stroke-width="1.5"></path>
        <path d="M798.65 375.16L798.65 375.16" stroke="rgba(30, 235, 242, 1)" stroke-width="1.5"></path>
        <path d="M798.65 375.16L944.04 346.95" stroke="rgba(30, 235, 242, 1)" stroke-width="1.5"></path>
        <path d="M798.65 375.16L694.39 260.36" stroke="rgba(30, 235, 242, 1)" stroke-width="1.5"></path>
        <path d="M798.65 375.16L963.26 510.62" stroke="rgba(30, 235, 242, 1)" stroke-width="1.5"></path>
        <path d="M798.65 375.16L559.88 408.33" stroke="rgba(30, 235, 242, 1)" stroke-width="1.5"></path>
        <path d="M844.59 648.34L844.59 648.34" stroke="rgba(30, 235, 242, 1)" stroke-width="1.5"></path>
        <path d="M844.59 648.34L972.91 667.1" stroke="rgba(30, 235, 242, 1)" stroke-width="1.5"></path>
        <path d="M844.59 648.34L963.26 510.62" stroke="rgba(30, 235, 242, 1)" stroke-width="1.5"></path>
        <path d="M844.59 648.34L798.65 375.16" stroke="rgba(30, 235, 242, 1)" stroke-width="1.5"></path>
        <path d="M844.59 648.34L1131.5 701.99" stroke="rgba(30, 235, 242, 1)" stroke-width="1.5"></path>
        <path d="M844.59 648.34L944.04 346.95" stroke="rgba(30, 235, 242, 1)" stroke-width="1.5"></path>
        <path d="M943.84 -69.28L943.84 -69.28" stroke="rgba(30, 235, 242, 1)" stroke-width="1.5"></path>
        <path d="M943.84 -69.28L998.87 40.63" stroke="rgba(30, 235, 242, 1)" stroke-width="1.5"></path>
        <path d="M943.84 -69.28L1094.75 41.21" stroke="rgba(30, 235, 242, 1)" stroke-width="1.5"></path>
        <path d="M998.87 40.63L998.87 40.63" stroke="rgba(30, 235, 242, 1)" stroke-width="1.5"></path>
        <path d="M998.87 40.63L1094.75 41.21" stroke="rgba(30, 235, 242, 1)" stroke-width="1.5"></path>
        <path d="M998.87 40.63L995.57 190.98" stroke="rgba(30, 235, 242, 1)" stroke-width="1.5"></path>
        <path d="M998.87 40.63L1157.25 -102.46" stroke="rgba(30, 235, 242, 1)" stroke-width="1.5"></path>
        <path d="M998.87 40.63L1099.16 246.12" stroke="rgba(30, 235, 242, 1)" stroke-width="1.5"></path>
        <path d="M998.87 40.63L1241.02 88.38" stroke="rgba(30, 235, 242, 1)" stroke-width="1.5"></path>
        <path d="M995.57 190.98L995.57 190.98" stroke="rgba(30, 235, 242, 1)" stroke-width="1.5"></path>
        <path d="M995.57 190.98L1099.16 246.12" stroke="rgba(30, 235, 242, 1)" stroke-width="1.5"></path>
        <path d="M995.57 190.98L944.04 346.95" stroke="rgba(30, 235, 242, 1)" stroke-width="1.5"></path>
        <path d="M995.57 190.98L1094.75 41.21" stroke="rgba(30, 235, 242, 1)" stroke-width="1.5"></path>
        <path d="M995.57 190.98L1148.9 380.56" stroke="rgba(30, 235, 242, 1)" stroke-width="1.5"></path>
        <path d="M944.04 346.95L944.04 346.95" stroke="rgba(30, 235, 242, 1)" stroke-width="1.5"></path>
        <path d="M963.26 510.62L963.26 510.62" stroke="rgba(30, 235, 242, 1)" stroke-width="1.5"></path>
        <path d="M963.26 510.62L972.91 667.1" stroke="rgba(30, 235, 242, 1)" stroke-width="1.5"></path>
        <path d="M963.26 510.62L944.04 346.95" stroke="rgba(30, 235, 242, 1)" stroke-width="1.5"></path>
        <path d="M963.26 510.62L1148.9 380.56" stroke="rgba(30, 235, 242, 1)" stroke-width="1.5"></path>
        <path d="M963.26 510.62L1131.5 701.99" stroke="rgba(30, 235, 242, 1)" stroke-width="1.5"></path>
        <path d="M972.91 667.1L972.91 667.1" stroke="rgba(30, 235, 242, 1)" stroke-width="1.5"></path>
        <path d="M972.91 667.1L1131.5 701.99" stroke="rgba(30, 235, 242, 1)" stroke-width="1.5"></path>
        <path d="M972.91 667.1L1269.95 690.9" stroke="rgba(30, 235, 242, 1)" stroke-width="1.5"></path>
        <path d="M972.91 667.1L672.33 677.88" stroke="rgba(30, 235, 242, 1)" stroke-width="1.5"></path>
        <path d="M972.91 667.1L944.04 346.95" stroke="rgba(30, 235, 242, 1)" stroke-width="1.5"></path>
        <path d="M1157.25 -102.46L1157.25 -102.46" stroke="rgba(30, 235, 242, 1)" stroke-width="1.5"></path>
        <path d="M1157.25 -102.46L1243.23 -64.76" stroke="rgba(30, 235, 242, 1)" stroke-width="1.5"></path>
        <path d="M1157.25 -102.46L1094.75 41.21" stroke="rgba(30, 235, 242, 1)" stroke-width="1.5"></path>
        <path d="M1157.25 -102.46L1241.02 88.38" stroke="rgba(30, 235, 242, 1)" stroke-width="1.5"></path>
        <path d="M1157.25 -102.46L943.84 -69.28" stroke="rgba(30, 235, 242, 1)" stroke-width="1.5"></path>
        <path d="M1094.75 41.21L1094.75 41.21" stroke="rgba(30, 235, 242, 1)" stroke-width="1.5"></path>
        <path d="M1094.75 41.21L1241.02 88.38" stroke="rgba(30, 235, 242, 1)" stroke-width="1.5"></path>
        <path d="M1099.16 246.12L1099.16 246.12" stroke="rgba(30, 235, 242, 1)" stroke-width="1.5"></path>
        <path d="M1099.16 246.12L1148.9 380.56" stroke="rgba(30, 235, 242, 1)" stroke-width="1.5"></path>
        <path d="M1099.16 246.12L1277.98 242.23" stroke="rgba(30, 235, 242, 1)" stroke-width="1.5"></path>
        <path d="M1099.16 246.12L944.04 346.95" stroke="rgba(30, 235, 242, 1)" stroke-width="1.5"></path>
        <path d="M1148.9 380.56L1148.9 380.56" stroke="rgba(30, 235, 242, 1)" stroke-width="1.5"></path>
        <path d="M1148.9 380.56L1310.76 363.63" stroke="rgba(30, 235, 242, 1)" stroke-width="1.5"></path>
        <path d="M1148.9 380.56L1277.98 242.23" stroke="rgba(30, 235, 242, 1)" stroke-width="1.5"></path>
        <path d="M1131.5 701.99L1131.5 701.99" stroke="rgba(30, 235, 242, 1)" stroke-width="1.5"></path>
        <path d="M1131.5 701.99L1269.95 690.9" stroke="rgba(30, 235, 242, 1)" stroke-width="1.5"></path>
        <path d="M1131.5 701.99L1301.51 523.31" stroke="rgba(30, 235, 242, 1)" stroke-width="1.5"></path>
        <path d="M1243.23 -64.76L1243.23 -64.76" stroke="rgba(30, 235, 242, 1)" stroke-width="1.5"></path>
        <path d="M1243.23 -64.76L1241.02 88.38" stroke="rgba(30, 235, 242, 1)" stroke-width="1.5"></path>
        <path d="M1243.23 -64.76L1094.75 41.21" stroke="rgba(30, 235, 242, 1)" stroke-width="1.5"></path>
        <path d="M1243.23 -64.76L1461.23 -92.54" stroke="rgba(30, 235, 242, 1)" stroke-width="1.5"></path>
        <path d="M1243.23 -64.76L998.87 40.63" stroke="rgba(30, 235, 242, 1)" stroke-width="1.5"></path>
        <path d="M1241.02 88.38L1241.02 88.38" stroke="rgba(30, 235, 242, 1)" stroke-width="1.5"></path>
        <path d="M1241.02 88.38L1277.98 242.23" stroke="rgba(30, 235, 242, 1)" stroke-width="1.5"></path>
        <path d="M1241.02 88.38L1403.6 223.93" stroke="rgba(30, 235, 242, 1)" stroke-width="1.5"></path>
        <path d="M1277.98 242.23L1277.98 242.23" stroke="rgba(30, 235, 242, 1)" stroke-width="1.5"></path>
        <path d="M1277.98 242.23L1310.76 363.63" stroke="rgba(30, 235, 242, 1)" stroke-width="1.5"></path>
        <path d="M1277.98 242.23L1403.6 223.93" stroke="rgba(30, 235, 242, 1)" stroke-width="1.5"></path>
        <path d="M1310.76 363.63L1310.76 363.63" stroke="rgba(30, 235, 242, 1)" stroke-width="1.5"></path>
        <path d="M1310.76 363.63L1424.38 341.24" stroke="rgba(30, 235, 242, 1)" stroke-width="1.5"></path>
        <path d="M1310.76 363.63L1301.51 523.31" stroke="rgba(30, 235, 242, 1)" stroke-width="1.5"></path>
        <path d="M1310.76 363.63L1403.6 223.93" stroke="rgba(30, 235, 242, 1)" stroke-width="1.5"></path>
        <path d="M1310.76 363.63L1424.68 520.36" stroke="rgba(30, 235, 242, 1)" stroke-width="1.5"></path>
        <path d="M1301.51 523.31L1301.51 523.31" stroke="rgba(30, 235, 242, 1)" stroke-width="1.5"></path>
        <path d="M1301.51 523.31L1424.68 520.36" stroke="rgba(30, 235, 242, 1)" stroke-width="1.5"></path>
        <path d="M1301.51 523.31L1269.95 690.9" stroke="rgba(30, 235, 242, 1)" stroke-width="1.5"></path>
        <path d="M1301.51 523.31L1448.76 652.34" stroke="rgba(30, 235, 242, 1)" stroke-width="1.5"></path>
        <path d="M1301.51 523.31L1148.9 380.56" stroke="rgba(30, 235, 242, 1)" stroke-width="1.5"></path>
        <path d="M1269.95 690.9L1269.95 690.9" stroke="rgba(30, 235, 242, 1)" stroke-width="1.5"></path>
        <path d="M1269.95 690.9L1448.76 652.34" stroke="rgba(30, 235, 242, 1)" stroke-width="1.5"></path>
        <path d="M1269.95 690.9L1424.68 520.36" stroke="rgba(30, 235, 242, 1)" stroke-width="1.5"></path>
        <path d="M1269.95 690.9L1537.73 646.78" stroke="rgba(30, 235, 242, 1)" stroke-width="1.5"></path>
        <path d="M1461.23 -92.54L1461.23 -92.54" stroke="rgba(30, 235, 242, 1)" stroke-width="1.5"></path>
        <path d="M1461.23 -92.54L1559.29 -88.89" stroke="rgba(30, 235, 242, 1)" stroke-width="1.5"></path>
        <path d="M1461.23 -92.54L1576.49 75.62" stroke="rgba(30, 235, 242, 1)" stroke-width="1.5"></path>
        <path d="M1403.6 223.93L1403.6 223.93" stroke="rgba(30, 235, 242, 1)" stroke-width="1.5"></path>
        <path d="M1403.6 223.93L1424.38 341.24" stroke="rgba(30, 235, 242, 1)" stroke-width="1.5"></path>
        <path d="M1403.6 223.93L1566.08 225" stroke="rgba(30, 235, 242, 1)" stroke-width="1.5"></path>
        <path d="M1424.38 341.24L1424.38 341.24" stroke="rgba(30, 235, 242, 1)" stroke-width="1.5"></path>
        <path d="M1424.38 341.24L1549.56 380.48" stroke="rgba(30, 235, 242, 1)" stroke-width="1.5"></path>
        <path d="M1424.38 341.24L1277.98 242.23" stroke="rgba(30, 235, 242, 1)" stroke-width="1.5"></path>
        <path d="M1424.68 520.36L1424.68 520.36" stroke="rgba(30, 235, 242, 1)" stroke-width="1.5"></path>
        <path d="M1424.68 520.36L1448.76 652.34" stroke="rgba(30, 235, 242, 1)" stroke-width="1.5"></path>
        <path d="M1448.76 652.34L1448.76 652.34" stroke="rgba(30, 235, 242, 1)" stroke-width="1.5"></path>
        <path d="M1448.76 652.34L1537.73 646.78" stroke="rgba(30, 235, 242, 1)" stroke-width="1.5"></path>
        <path d="M1559.29 -88.89L1559.29 -88.89" stroke="rgba(30, 235, 242, 1)" stroke-width="1.5"></path>
        <path d="M1559.29 -88.89L1576.49 75.62" stroke="rgba(30, 235, 242, 1)" stroke-width="1.5"></path>
        <path d="M1559.29 -88.89L1566.08 225" stroke="rgba(30, 235, 242, 1)" stroke-width="1.5"></path>
        <path d="M1576.49 75.62L1576.49 75.62" stroke="rgba(30, 235, 242, 1)" stroke-width="1.5"></path>
        <path d="M1576.49 75.62L1566.08 225" stroke="rgba(30, 235, 242, 1)" stroke-width="1.5"></path>
        <path d="M1566.08 225L1566.08 225" stroke="rgba(30, 235, 242, 1)" stroke-width="1.5"></path>
        <path d="M1566.08 225L1549.56 380.48" stroke="rgba(30, 235, 242, 1)" stroke-width="1.5"></path>
        <path d="M1566.08 225L1424.38 341.24" stroke="rgba(30, 235, 242, 1)" stroke-width="1.5"></path>
        <path d="M1566.08 225L1277.98 242.23" stroke="rgba(30, 235, 242, 1)" stroke-width="1.5"></path>
        <path d="M1549.56 380.48L1549.56 380.48" stroke="rgba(30, 235, 242, 1)" stroke-width="1.5"></path>
        <path d="M1549.56 380.48L1559.52 554.95" stroke="rgba(30, 235, 242, 1)" stroke-width="1.5"></path>
        <path d="M1559.52 554.95L1559.52 554.95" stroke="rgba(30, 235, 242, 1)" stroke-width="1.5"></path>
        <path d="M1559.52 554.95L1537.73 646.78" stroke="rgba(30, 235, 242, 1)" stroke-width="1.5"></path>
        <path d="M1559.52 554.95L1424.68 520.36" stroke="rgba(30, 235, 242, 1)" stroke-width="1.5"></path>
        <path d="M1537.73 646.78L1537.73 646.78" stroke="rgba(30, 235, 242, 1)" stroke-width="1.5"></path>
        <path d="M1537.73 646.78L1424.68 520.36" stroke="rgba(30, 235, 242, 1)" stroke-width="1.5"></path>
        <circle r="5" cx="-76.15" cy="363.76" fill="rgba(30, 235, 242, 1)"></circle>
        <circle r="5" cx="-105.11" cy="548.99" fill="rgba(30, 235, 242, 1)"></circle>
        <circle r="5" cx="72.68" cy="401.56" fill="rgba(30, 235, 242, 1)"></circle>
        <circle r="5" cx="87.92" cy="521.75" fill="rgba(30, 235, 242, 1)"></circle>
        <circle r="5" cx="64.86" cy="650.89" fill="rgba(30, 235, 242, 1)"></circle>
        <circle r="5" cx="237.01" cy="522.63" fill="rgba(30, 235, 242, 1)"></circle>
        <circle r="5" cx="259.08" cy="703.08" fill="rgba(30, 235, 242, 1)"></circle>
        <circle r="5" cx="351.46" cy="382.7" fill="rgba(30, 235, 242, 1)"></circle>
        <circle r="5" cx="362.26" cy="514.64" fill="rgba(30, 235, 242, 1)"></circle>
        <circle r="5" cx="350.33" cy="677.26" fill="rgba(30, 235, 242, 1)"></circle>
        <circle r="5" cx="559.88" cy="408.33" fill="rgba(30, 235, 242, 1)"></circle>
        <circle r="5" cx="548.04" cy="535" fill="rgba(30, 235, 242, 1)"></circle>
        <circle r="5" cx="491.91" cy="692.68" fill="rgba(30, 235, 242, 1)"></circle>
        <circle r="5" cx="694.39" cy="260.36" fill="rgba(30, 235, 242, 1)"></circle>
        <circle r="5" cx="645.96" cy="357.51" fill="rgba(30, 235, 242, 1)"></circle>
        <circle r="5" cx="672.33" cy="677.88" fill="rgba(30, 235, 242, 1)"></circle>
        <circle r="5" cx="820.67" cy="215.86" fill="rgba(30, 235, 242, 1)"></circle>
        <circle r="5" cx="798.65" cy="375.16" fill="rgba(30, 235, 242, 1)"></circle>
        <circle r="5" cx="844.59" cy="648.34" fill="rgba(30, 235, 242, 1)"></circle>
        <circle r="5" cx="943.84" cy="-69.28" fill="rgba(30, 235, 242, 1)"></circle>
        <circle r="5" cx="998.87" cy="40.63" fill="rgba(30, 235, 242, 1)"></circle>
        <circle r="5" cx="995.57" cy="190.98" fill="rgba(30, 235, 242, 1)"></circle>
        <circle r="5" cx="944.04" cy="346.95" fill="rgba(30, 235, 242, 1)"></circle>
        <circle r="5" cx="963.26" cy="510.62" fill="rgba(30, 235, 242, 1)"></circle>
        <circle r="5" cx="972.91" cy="667.1" fill="rgba(30, 235, 242, 1)"></circle>
        <circle r="5" cx="1157.25" cy="-102.46" fill="rgba(30, 235, 242, 1)"></circle>
        <circle r="5" cx="1094.75" cy="41.21" fill="rgba(30, 235, 242, 1)"></circle>
        <circle r="5" cx="1099.16" cy="246.12" fill="rgba(30, 235, 242, 1)"></circle>
        <circle r="5" cx="1148.9" cy="380.56" fill="rgba(30, 235, 242, 1)"></circle>
        <circle r="5" cx="1131.5" cy="701.99" fill="rgba(30, 235, 242, 1)"></circle>
        <circle r="5" cx="1243.23" cy="-64.76" fill="rgba(30, 235, 242, 1)"></circle>
        <circle r="5" cx="1241.02" cy="88.38" fill="rgba(30, 235, 242, 1)"></circle>
        <circle r="5" cx="1277.98" cy="242.23" fill="rgba(30, 235, 242, 1)"></circle>
        <circle r="5" cx="1310.76" cy="363.63" fill="rgba(30, 235, 242, 1)"></circle>
        <circle r="5" cx="1301.51" cy="523.31" fill="rgba(30, 235, 242, 1)"></circle>
        <circle r="5" cx="1269.95" cy="690.9" fill="rgba(30, 235, 242, 1)"></circle>
        <circle r="5" cx="1461.23" cy="-92.54" fill="rgba(30, 235, 242, 1)"></circle>
        <circle r="5" cx="1403.6" cy="223.93" fill="rgba(30, 235, 242, 1)"></circle>
        <circle r="5" cx="1424.38" cy="341.24" fill="rgba(30, 235, 242, 1)"></circle>
        <circle r="5" cx="1424.68" cy="520.36" fill="rgba(30, 235, 242, 1)"></circle>
        <circle r="5" cx="1448.76" cy="652.34" fill="rgba(30, 235, 242, 1)"></circle>
        <circle r="5" cx="1559.29" cy="-88.89" fill="rgba(30, 235, 242, 1)"></circle>
        <circle r="5" cx="1576.49" cy="75.62" fill="rgba(30, 235, 242, 1)"></circle>
        <circle r="5" cx="1566.08" cy="225" fill="rgba(30, 235, 242, 1)"></circle>
        <circle r="5" cx="1549.56" cy="380.48" fill="rgba(30, 235, 242, 1)"></circle>
        <circle r="5" cx="1559.52" cy="554.95" fill="rgba(30, 235, 242, 1)"></circle>
        <circle r="5" cx="1537.73" cy="646.78" fill="rgba(30, 235, 242, 1)"></circle>
        <path d="M686.43 521.5L686.43 521.5" stroke="hsl(182, 89.1%, 69.3%)" stroke-width="1.5"></path>
        <path d="M686.43 521.5L837.25 504.2" stroke="hsl(182, 89.1%, 69.3%)" stroke-width="1.5"></path>
        <path d="M686.43 521.5L696.17 689.41" stroke="hsl(182, 89.1%, 69.3%)" stroke-width="1.5"></path>
        <path d="M686.43 521.5L501.65 537.19" stroke="hsl(182, 89.1%, 69.3%)" stroke-width="1.5"></path>
        <path d="M686.43 521.5L802.59 696.65" stroke="hsl(182, 89.1%, 69.3%)" stroke-width="1.5"></path>
        <path d="M686.43 521.5L540.67 691.71" stroke="hsl(182, 89.1%, 69.3%)" stroke-width="1.5"></path>
        <path d="M686.43 521.5L857.5 364.09" stroke="hsl(182, 89.1%, 69.3%)" stroke-width="1.5"></path>
        <path d="M802.59 696.65L802.59 696.65" stroke="hsl(182, 89.1%, 69.3%)" stroke-width="1.5"></path>
        <path d="M802.59 696.65L696.17 689.41" stroke="hsl(182, 89.1%, 69.3%)" stroke-width="1.5"></path>
        <path d="M802.59 696.65L961.11 694.21" stroke="hsl(182, 89.1%, 69.3%)" stroke-width="1.5"></path>
        <path d="M802.59 696.65L837.25 504.2" stroke="hsl(182, 89.1%, 69.3%)" stroke-width="1.5"></path>
        <path d="M802.59 696.65L956.87 496.22" stroke="hsl(182, 89.1%, 69.3%)" stroke-width="1.5"></path>
        <path d="M802.59 696.65L540.67 691.71" stroke="hsl(182, 89.1%, 69.3%)" stroke-width="1.5"></path>
        <path d="M970.05 256.91L970.05 256.91" stroke="hsl(182, 89.1%, 69.3%)" stroke-width="1.5"></path>
        <path d="M970.05 256.91L1101.44 239.9" stroke="hsl(182, 89.1%, 69.3%)" stroke-width="1.5"></path>
        <path d="M970.05 256.91L985.21 406.09" stroke="hsl(182, 89.1%, 69.3%)" stroke-width="1.5"></path>
        <path d="M970.05 256.91L857.5 364.09" stroke="hsl(182, 89.1%, 69.3%)" stroke-width="1.5"></path>
        <path d="M970.05 256.91L1095.23 393.11" stroke="hsl(182, 89.1%, 69.3%)" stroke-width="1.5"></path>
        <path d="M1101.44 239.9L1101.44 239.9" stroke="hsl(182, 89.1%, 69.3%)" stroke-width="1.5"></path>
        <path d="M1101.44 239.9L1239.71 246.77" stroke="hsl(182, 89.1%, 69.3%)" stroke-width="1.5"></path>
        <path d="M1095.23 393.11L1095.23 393.11" stroke="hsl(182, 89.1%, 69.3%)" stroke-width="1.5"></path>
        <path d="M1095.23 393.11L985.21 406.09" stroke="hsl(182, 89.1%, 69.3%)" stroke-width="1.5"></path>
        <path d="M1095.23 393.11L1106.1 543.86" stroke="hsl(182, 89.1%, 69.3%)" stroke-width="1.5"></path>
        <path d="M1095.23 393.11L1101.44 239.9" stroke="hsl(182, 89.1%, 69.3%)" stroke-width="1.5"></path>
        <path d="M1411.4 228.82L1411.4 228.82" stroke="hsl(182, 89.1%, 69.3%)" stroke-width="1.5"></path>
        <path d="M1411.4 228.82L1408.48 100.91" stroke="hsl(182, 89.1%, 69.3%)" stroke-width="1.5"></path>
        <path d="M1411.4 228.82L1555.13 190.32" stroke="hsl(182, 89.1%, 69.3%)" stroke-width="1.5"></path>
        <path d="M1411.4 228.82L1413.99 384.11" stroke="hsl(182, 89.1%, 69.3%)" stroke-width="1.5"></path>
        <path d="M1540.3 -47.69L1540.3 -47.69" stroke="hsl(182, 89.1%, 69.3%)" stroke-width="1.5"></path>
        <path d="M1540.3 -47.69L1408.48 100.91" stroke="hsl(182, 89.1%, 69.3%)" stroke-width="1.5"></path>
        <path d="M1555.13 190.32L1555.13 190.32" stroke="hsl(182, 89.1%, 69.3%)" stroke-width="1.5"></path>
        <path d="M1555.13 190.32L1555.15 350.33" stroke="hsl(182, 89.1%, 69.3%)" stroke-width="1.5"></path>
        <path d="M1555.13 190.32L1408.48 100.91" stroke="hsl(182, 89.1%, 69.3%)" stroke-width="1.5"></path>
        <path d="M1560.81 653.29L1560.81 653.29" stroke="hsl(182, 89.1%, 69.3%)" stroke-width="1.5"></path>
        <path d="M1560.81 653.29L1442.29 686.95" stroke="hsl(182, 89.1%, 69.3%)" stroke-width="1.5"></path>
        <path d="M1560.81 653.29L1538.13 524.16" stroke="hsl(182, 89.1%, 69.3%)" stroke-width="1.5"></path>
        <path d="M1560.81 653.29L1435.23 517.4" stroke="hsl(182, 89.1%, 69.3%)" stroke-width="1.5"></path>
        <path d="M1560.81 653.29L1301.53 690.22" stroke="hsl(182, 89.1%, 69.3%)" stroke-width="1.5"></path>
        <path d="M1560.81 653.29L1310.8 544.86" stroke="hsl(182, 89.1%, 69.3%)" stroke-width="1.5"></path>
        <path d="M1560.81 653.29L1555.15 350.33" stroke="hsl(182, 89.1%, 69.3%)" stroke-width="1.5"></path>
        <path d="M-45.21 519.16L-45.21 519.16" stroke="hsl(182, 89.1%, 69.3%)" stroke-width="1.5"></path>
        <path d="M-45.21 519.16L39.13 508.3" stroke="hsl(182, 89.1%, 69.3%)" stroke-width="1.5"></path>
        <path d="M-45.21 519.16L-78.51 709.24" stroke="hsl(182, 89.1%, 69.3%)" stroke-width="1.5"></path>
        <path d="M-78.51 709.24L-78.51 709.24" stroke="hsl(182, 89.1%, 69.3%)" stroke-width="1.5"></path>
        <path d="M-78.51 709.24L86.9 701.52" stroke="hsl(182, 89.1%, 69.3%)" stroke-width="1.5"></path>
        <path d="M-78.51 709.24L39.13 508.3" stroke="hsl(182, 89.1%, 69.3%)" stroke-width="1.5"></path>
        <path d="M39.13 508.3L39.13 508.3" stroke="hsl(182, 89.1%, 69.3%)" stroke-width="1.5"></path>
        <path d="M39.13 508.3L220.73 561.26" stroke="hsl(182, 89.1%, 69.3%)" stroke-width="1.5"></path>
        <path d="M39.13 508.3L86.9 701.52" stroke="hsl(182, 89.1%, 69.3%)" stroke-width="1.5"></path>
        <path d="M39.13 508.3L391.56 560.94" stroke="hsl(182, 89.1%, 69.3%)" stroke-width="1.5"></path>
        <path d="M86.9 701.52L86.9 701.52" stroke="hsl(182, 89.1%, 69.3%)" stroke-width="1.5"></path>
        <path d="M86.9 701.52L220.73 561.26" stroke="hsl(182, 89.1%, 69.3%)" stroke-width="1.5"></path>
        <path d="M220.73 561.26L220.73 561.26" stroke="hsl(182, 89.1%, 69.3%)" stroke-width="1.5"></path>
        <path d="M220.73 561.26L391.56 560.94" stroke="hsl(182, 89.1%, 69.3%)" stroke-width="1.5"></path>
        <path d="M220.73 561.26L345.01 695.67" stroke="hsl(182, 89.1%, 69.3%)" stroke-width="1.5"></path>
        <path d="M220.73 561.26L-45.21 519.16" stroke="hsl(182, 89.1%, 69.3%)" stroke-width="1.5"></path>
        <path d="M391.56 560.94L391.56 560.94" stroke="hsl(182, 89.1%, 69.3%)" stroke-width="1.5"></path>
        <path d="M391.56 560.94L501.65 537.19" stroke="hsl(182, 89.1%, 69.3%)" stroke-width="1.5"></path>
        <path d="M391.56 560.94L345.01 695.67" stroke="hsl(182, 89.1%, 69.3%)" stroke-width="1.5"></path>
        <path d="M345.01 695.67L345.01 695.67" stroke="hsl(182, 89.1%, 69.3%)" stroke-width="1.5"></path>
        <path d="M345.01 695.67L540.67 691.71" stroke="hsl(182, 89.1%, 69.3%)" stroke-width="1.5"></path>
        <path d="M501.65 537.19L501.65 537.19" stroke="hsl(182, 89.1%, 69.3%)" stroke-width="1.5"></path>
        <path d="M501.65 537.19L540.67 691.71" stroke="hsl(182, 89.1%, 69.3%)" stroke-width="1.5"></path>
        <path d="M501.65 537.19L345.01 695.67" stroke="hsl(182, 89.1%, 69.3%)" stroke-width="1.5"></path>
        <path d="M501.65 537.19L696.17 689.41" stroke="hsl(182, 89.1%, 69.3%)" stroke-width="1.5"></path>
        <path d="M540.67 691.71L540.67 691.71" stroke="hsl(182, 89.1%, 69.3%)" stroke-width="1.5"></path>
        <path d="M540.67 691.71L696.17 689.41" stroke="hsl(182, 89.1%, 69.3%)" stroke-width="1.5"></path>
        <path d="M540.67 691.71L391.56 560.94" stroke="hsl(182, 89.1%, 69.3%)" stroke-width="1.5"></path>
        <path d="M696.17 689.41L696.17 689.41" stroke="hsl(182, 89.1%, 69.3%)" stroke-width="1.5"></path>
        <path d="M696.17 689.41L837.25 504.2" stroke="hsl(182, 89.1%, 69.3%)" stroke-width="1.5"></path>
        <path d="M857.5 364.09L857.5 364.09" stroke="hsl(182, 89.1%, 69.3%)" stroke-width="1.5"></path>
        <path d="M857.5 364.09L985.21 406.09" stroke="hsl(182, 89.1%, 69.3%)" stroke-width="1.5"></path>
        <path d="M857.5 364.09L837.25 504.2" stroke="hsl(182, 89.1%, 69.3%)" stroke-width="1.5"></path>
        <path d="M857.5 364.09L956.87 496.22" stroke="hsl(182, 89.1%, 69.3%)" stroke-width="1.5"></path>
        <path d="M857.5 364.09L1095.23 393.11" stroke="hsl(182, 89.1%, 69.3%)" stroke-width="1.5"></path>
        <path d="M837.25 504.2L837.25 504.2" stroke="hsl(182, 89.1%, 69.3%)" stroke-width="1.5"></path>
        <path d="M837.25 504.2L956.87 496.22" stroke="hsl(182, 89.1%, 69.3%)" stroke-width="1.5"></path>
        <path d="M837.25 504.2L985.21 406.09" stroke="hsl(182, 89.1%, 69.3%)" stroke-width="1.5"></path>
        <path d="M985.21 406.09L985.21 406.09" stroke="hsl(182, 89.1%, 69.3%)" stroke-width="1.5"></path>
        <path d="M985.21 406.09L956.87 496.22" stroke="hsl(182, 89.1%, 69.3%)" stroke-width="1.5"></path>
        <path d="M956.87 496.22L956.87 496.22" stroke="hsl(182, 89.1%, 69.3%)" stroke-width="1.5"></path>
        <path d="M956.87 496.22L1106.1 543.86" stroke="hsl(182, 89.1%, 69.3%)" stroke-width="1.5"></path>
        <path d="M961.11 694.21L961.11 694.21" stroke="hsl(182, 89.1%, 69.3%)" stroke-width="1.5"></path>
        <path d="M961.11 694.21L1158.51 692.53" stroke="hsl(182, 89.1%, 69.3%)" stroke-width="1.5"></path>
        <path d="M961.11 694.21L956.87 496.22" stroke="hsl(182, 89.1%, 69.3%)" stroke-width="1.5"></path>
        <path d="M1145.46 82.29L1145.46 82.29" stroke="hsl(182, 89.1%, 69.3%)" stroke-width="1.5"></path>
        <path d="M1145.46 82.29L1253.41 100.13" stroke="hsl(182, 89.1%, 69.3%)" stroke-width="1.5"></path>
        <path d="M1145.46 82.29L1101.44 239.9" stroke="hsl(182, 89.1%, 69.3%)" stroke-width="1.5"></path>
        <path d="M1145.46 82.29L1239.71 246.77" stroke="hsl(182, 89.1%, 69.3%)" stroke-width="1.5"></path>
        <path d="M1145.46 82.29L1304.92 -86.44" stroke="hsl(182, 89.1%, 69.3%)" stroke-width="1.5"></path>
        <path d="M1145.46 82.29L970.05 256.91" stroke="hsl(182, 89.1%, 69.3%)" stroke-width="1.5"></path>
        <path d="M1145.46 82.29L1408.48 100.91" stroke="hsl(182, 89.1%, 69.3%)" stroke-width="1.5"></path>
        <path d="M1106.1 543.86L1106.1 543.86" stroke="hsl(182, 89.1%, 69.3%)" stroke-width="1.5"></path>
        <path d="M1106.1 543.86L1158.51 692.53" stroke="hsl(182, 89.1%, 69.3%)" stroke-width="1.5"></path>
        <path d="M1158.51 692.53L1158.51 692.53" stroke="hsl(182, 89.1%, 69.3%)" stroke-width="1.5"></path>
        <path d="M1158.51 692.53L1301.53 690.22" stroke="hsl(182, 89.1%, 69.3%)" stroke-width="1.5"></path>
        <path d="M1158.51 692.53L1310.8 544.86" stroke="hsl(182, 89.1%, 69.3%)" stroke-width="1.5"></path>
        <path d="M1158.51 692.53L956.87 496.22" stroke="hsl(182, 89.1%, 69.3%)" stroke-width="1.5"></path>
        <path d="M1158.51 692.53L1442.29 686.95" stroke="hsl(182, 89.1%, 69.3%)" stroke-width="1.5"></path>
        <path d="M1304.92 -86.44L1304.92 -86.44" stroke="hsl(182, 89.1%, 69.3%)" stroke-width="1.5"></path>
        <path d="M1304.92 -86.44L1253.41 100.13" stroke="hsl(182, 89.1%, 69.3%)" stroke-width="1.5"></path>
        <path d="M1304.92 -86.44L1408.48 100.91" stroke="hsl(182, 89.1%, 69.3%)" stroke-width="1.5"></path>
        <path d="M1304.92 -86.44L1540.3 -47.69" stroke="hsl(182, 89.1%, 69.3%)" stroke-width="1.5"></path>
        <path d="M1253.41 100.13L1253.41 100.13" stroke="hsl(182, 89.1%, 69.3%)" stroke-width="1.5"></path>
        <path d="M1253.41 100.13L1239.71 246.77" stroke="hsl(182, 89.1%, 69.3%)" stroke-width="1.5"></path>
        <path d="M1253.41 100.13L1408.48 100.91" stroke="hsl(182, 89.1%, 69.3%)" stroke-width="1.5"></path>
        <path d="M1239.71 246.77L1239.71 246.77" stroke="hsl(182, 89.1%, 69.3%)" stroke-width="1.5"></path>
        <path d="M1239.71 246.77L1258.51 338.88" stroke="hsl(182, 89.1%, 69.3%)" stroke-width="1.5"></path>
        <path d="M1239.71 246.77L1411.4 228.82" stroke="hsl(182, 89.1%, 69.3%)" stroke-width="1.5"></path>
        <path d="M1239.71 246.77L1095.23 393.11" stroke="hsl(182, 89.1%, 69.3%)" stroke-width="1.5"></path>
        <path d="M1258.51 338.88L1258.51 338.88" stroke="hsl(182, 89.1%, 69.3%)" stroke-width="1.5"></path>
        <path d="M1258.51 338.88L1413.99 384.11" stroke="hsl(182, 89.1%, 69.3%)" stroke-width="1.5"></path>
        <path d="M1258.51 338.88L1095.23 393.11" stroke="hsl(182, 89.1%, 69.3%)" stroke-width="1.5"></path>
        <path d="M1258.51 338.88L1101.44 239.9" stroke="hsl(182, 89.1%, 69.3%)" stroke-width="1.5"></path>
        <path d="M1258.51 338.88L1411.4 228.82" stroke="hsl(182, 89.1%, 69.3%)" stroke-width="1.5"></path>
        <path d="M1258.51 338.88L1310.8 544.86" stroke="hsl(182, 89.1%, 69.3%)" stroke-width="1.5"></path>
        <path d="M1310.8 544.86L1310.8 544.86" stroke="hsl(182, 89.1%, 69.3%)" stroke-width="1.5"></path>
        <path d="M1310.8 544.86L1435.23 517.4" stroke="hsl(182, 89.1%, 69.3%)" stroke-width="1.5"></path>
        <path d="M1310.8 544.86L1301.53 690.22" stroke="hsl(182, 89.1%, 69.3%)" stroke-width="1.5"></path>
        <path d="M1310.8 544.86L1413.99 384.11" stroke="hsl(182, 89.1%, 69.3%)" stroke-width="1.5"></path>
        <path d="M1310.8 544.86L1442.29 686.95" stroke="hsl(182, 89.1%, 69.3%)" stroke-width="1.5"></path>
        <path d="M1301.53 690.22L1301.53 690.22" stroke="hsl(182, 89.1%, 69.3%)" stroke-width="1.5"></path>
        <path d="M1301.53 690.22L1442.29 686.95" stroke="hsl(182, 89.1%, 69.3%)" stroke-width="1.5"></path>
        <path d="M1301.53 690.22L1435.23 517.4" stroke="hsl(182, 89.1%, 69.3%)" stroke-width="1.5"></path>
        <path d="M1408.48 100.91L1408.48 100.91" stroke="hsl(182, 89.1%, 69.3%)" stroke-width="1.5"></path>
        <path d="M1413.99 384.11L1413.99 384.11" stroke="hsl(182, 89.1%, 69.3%)" stroke-width="1.5"></path>
        <path d="M1413.99 384.11L1435.23 517.4" stroke="hsl(182, 89.1%, 69.3%)" stroke-width="1.5"></path>
        <path d="M1413.99 384.11L1555.15 350.33" stroke="hsl(182, 89.1%, 69.3%)" stroke-width="1.5"></path>
        <path d="M1413.99 384.11L1538.13 524.16" stroke="hsl(182, 89.1%, 69.3%)" stroke-width="1.5"></path>
        <path d="M1435.23 517.4L1435.23 517.4" stroke="hsl(182, 89.1%, 69.3%)" stroke-width="1.5"></path>
        <path d="M1435.23 517.4L1538.13 524.16" stroke="hsl(182, 89.1%, 69.3%)" stroke-width="1.5"></path>
        <path d="M1435.23 517.4L1442.29 686.95" stroke="hsl(182, 89.1%, 69.3%)" stroke-width="1.5"></path>
        <path d="M1435.23 517.4L1555.15 350.33" stroke="hsl(182, 89.1%, 69.3%)" stroke-width="1.5"></path>
        <path d="M1442.29 686.95L1442.29 686.95" stroke="hsl(182, 89.1%, 69.3%)" stroke-width="1.5"></path>
        <path d="M1442.29 686.95L1538.13 524.16" stroke="hsl(182, 89.1%, 69.3%)" stroke-width="1.5"></path>
        <path d="M1555.15 350.33L1555.15 350.33" stroke="hsl(182, 89.1%, 69.3%)" stroke-width="1.5"></path>
        <path d="M1555.15 350.33L1538.13 524.16" stroke="hsl(182, 89.1%, 69.3%)" stroke-width="1.5"></path>
        <path d="M1538.13 524.16L1538.13 524.16" stroke="hsl(182, 89.1%, 69.3%)" stroke-width="1.5"></path>
        <circle r="25" cx="686.43" cy="521.5" fill="url(#SvgjsRadialGradient1026)"></circle>
        <circle r="25" cx="802.59" cy="696.65" fill="url(#SvgjsRadialGradient1026)"></circle>
        <circle r="25" cx="970.05" cy="256.91" fill="url(#SvgjsRadialGradient1026)"></circle>
        <circle r="25" cx="1101.44" cy="239.9" fill="url(#SvgjsRadialGradient1026)"></circle>
        <circle r="25" cx="1095.23" cy="393.11" fill="url(#SvgjsRadialGradient1026)"></circle>
        <circle r="25" cx="1411.4" cy="228.82" fill="url(#SvgjsRadialGradient1026)"></circle>
        <circle r="25" cx="1540.3" cy="-47.69" fill="url(#SvgjsRadialGradient1026)"></circle>
        <circle r="25" cx="1555.13" cy="190.32" fill="url(#SvgjsRadialGradient1026)"></circle>
        <circle r="25" cx="1560.81" cy="653.29" fill="url(#SvgjsRadialGradient1026)"></circle>
        <circle r="5" cx="-45.21" cy="519.16" fill="#8ff5f9"></circle>
        <circle r="5" cx="-78.51" cy="709.24" fill="#8ff5f9"></circle>
        <circle r="5" cx="39.13" cy="508.3" fill="#8ff5f9"></circle>
        <circle r="5" cx="86.9" cy="701.52" fill="#8ff5f9"></circle>
        <circle r="5" cx="220.73" cy="561.26" fill="#8ff5f9"></circle>
        <circle r="5" cx="391.56" cy="560.94" fill="#8ff5f9"></circle>
        <circle r="5" cx="345.01" cy="695.67" fill="#8ff5f9"></circle>
        <circle r="5" cx="501.65" cy="537.19" fill="#8ff5f9"></circle>
        <circle r="5" cx="540.67" cy="691.71" fill="#8ff5f9"></circle>
        <circle r="5" cx="696.17" cy="689.41" fill="#8ff5f9"></circle>
        <circle r="5" cx="857.5" cy="364.09" fill="#8ff5f9"></circle>
        <circle r="5" cx="837.25" cy="504.2" fill="#8ff5f9"></circle>
        <circle r="5" cx="985.21" cy="406.09" fill="#8ff5f9"></circle>
        <circle r="5" cx="956.87" cy="496.22" fill="#8ff5f9"></circle>
        <circle r="5" cx="961.11" cy="694.21" fill="#8ff5f9"></circle>
        <circle r="5" cx="1145.46" cy="82.29" fill="#8ff5f9"></circle>
        <circle r="5" cx="1106.1" cy="543.86" fill="#8ff5f9"></circle>
        <circle r="5" cx="1158.51" cy="692.53" fill="#8ff5f9"></circle>
        <circle r="5" cx="1304.92" cy="-86.44" fill="#8ff5f9"></circle>
        <circle r="5" cx="1253.41" cy="100.13" fill="#8ff5f9"></circle>
        <circle r="5" cx="1239.71" cy="246.77" fill="#8ff5f9"></circle>
        <circle r="5" cx="1258.51" cy="338.88" fill="#8ff5f9"></circle>
        <circle r="5" cx="1310.8" cy="544.86" fill="#8ff5f9"></circle>
        <circle r="5" cx="1301.53" cy="690.22" fill="#8ff5f9"></circle>
        <circle r="5" cx="1408.48" cy="100.91" fill="#8ff5f9"></circle>
        <circle r="5" cx="1413.99" cy="384.11" fill="#8ff5f9"></circle>
        <circle r="5" cx="1435.23" cy="517.4" fill="#8ff5f9"></circle>
        <circle r="5" cx="1442.29" cy="686.95" fill="#8ff5f9"></circle>
        <circle r="5" cx="1555.15" cy="350.33" fill="#8ff5f9"></circle>
        <circle r="5" cx="1538.13" cy="524.16" fill="#8ff5f9"></circle>
    </g>
    <defs>
        <mask id="SvgjsMask1025">
            <rect width="1440" height="560" fill="#ffffff"></rect>
        </mask>
        <radialGradient id="SvgjsRadialGradient1026">
            <stop stop-color="#ffffff" offset="0.1"></stop>
            <stop stop-color="rgba(30, 235, 242, 1)" offset="0.2"></stop>
            <stop stop-color="rgba(30, 235, 242, 0)" offset="1"></stop>
        </radialGradient>
    </defs>
</svg>