<svg xmlns="http://www.w3.org/2000/svg" version="1.1" xmlns:xlink="http://www.w3.org/1999/xlink" xmlns:svgjs="http://svgjs.com/svgjs" width="1440" height="560" preserveAspectRatio="none" viewBox="0 0 1440 560">
    <g mask="url(&quot;#SvgjsMask3201&quot;)" fill="none">
        <g mask="url(&quot;#SvgjsMask3203&quot;)">
            <path d="M1348.5 325.5L1317.5 325.5L1286.5 325.5M1410.5 325.5L1379.5 294.5L1348.5 294.5M1162.5 263.5L1131.5 294.5M1441.5 294.5L1410.5 294.5M1472.5 294.5L1441.5 294.5L1410.5 325.5L1379.5 325.5L1348.5 325.5L1317.5 294.5L1286.5 294.5L1255.5 263.5L1224.5 263.5L1193.5 263.5L1162.5 263.5L1131.5 263.5L1100.5 263.5L1069.5 263.5L1038.5 263.5L1007.5 263.5L976.5 263.5L945.5 263.5L914.5 263.5L883.5 263.5L852.5 263.5L821.5 263.5L790.5 263.5" stroke="url(#SvgjsRadialGradient3202)" stroke-width="5.17"></path>
            <path d="M782.75 263.5 a7.75 7.75 0 1 0 15.5 0 a7.75 7.75 0 1 0 -15.5 0zM1278.75 325.5 a7.75 7.75 0 1 0 15.5 0 a7.75 7.75 0 1 0 -15.5 0zM1340.75 294.5 a7.75 7.75 0 1 0 15.5 0 a7.75 7.75 0 1 0 -15.5 0zM1123.75 294.5 a7.75 7.75 0 1 0 15.5 0 a7.75 7.75 0 1 0 -15.5 0zM1402.75 294.5 a7.75 7.75 0 1 0 15.5 0 a7.75 7.75 0 1 0 -15.5 0z" fill="url(#SvgjsRadialGradient3202)"></path>
            <path d="M666.5 263.5L635.5 232.5L604.5 232.5L573.5 201.5L542.5 201.5L511.5 201.5L480.5 201.5L449.5 201.5L418.5 232.5M914.5 232.5L883.5 201.5L852.5 201.5L821.5 201.5L790.5 201.5L759.5 201.5L728.5 201.5L697.5 201.5L666.5 201.5L635.5 201.5L604.5 201.5L573.5 170.5L542.5 170.5L511.5 170.5L480.5 170.5L449.5 170.5L418.5 170.5M542.5 263.5L511.5 294.5L480.5 325.5M759.5 232.5L728.5 263.5M263.5 294.5L232.5 263.5L201.5 263.5M170.5 263.5L139.5 232.5L108.5 232.5L77.5 232.5M387.5 294.5L356.5 325.5M232.5 294.5L201.5 325.5L170.5 325.5L139.5 356.5L108.5 356.5L77.5 356.5M449.5 294.5L418.5 263.5L387.5 263.5M976.5 232.5L945.5 201.5L914.5 201.5M573.5 263.5L542.5 294.5L511.5 325.5M1472.5 263.5L1441.5 263.5L1410.5 263.5L1379.5 263.5L1348.5 263.5L1317.5 263.5L1286.5 263.5L1255.5 232.5L1224.5 232.5L1193.5 232.5L1162.5 232.5L1131.5 232.5L1100.5 232.5L1069.5 232.5L1038.5 232.5L1007.5 232.5L976.5 232.5L945.5 232.5L914.5 232.5L883.5 232.5L852.5 232.5L821.5 232.5L790.5 232.5L759.5 232.5L728.5 232.5L697.5 263.5L666.5 263.5L635.5 263.5L604.5 263.5L573.5 263.5L542.5 263.5L511.5 263.5L480.5 263.5L449.5 294.5L418.5 294.5L387.5 294.5L356.5 294.5L325.5 294.5L294.5 294.5L263.5 294.5L232.5 294.5L201.5 294.5L170.5 263.5L139.5 263.5" stroke="url(#SvgjsRadialGradient3202)" stroke-width="5.17"></path>
            <path d="M131.75 263.5 a7.75 7.75 0 1 0 15.5 0 a7.75 7.75 0 1 0 -15.5 0zM410.75 232.5 a7.75 7.75 0 1 0 15.5 0 a7.75 7.75 0 1 0 -15.5 0zM410.75 170.5 a7.75 7.75 0 1 0 15.5 0 a7.75 7.75 0 1 0 -15.5 0zM472.75 325.5 a7.75 7.75 0 1 0 15.5 0 a7.75 7.75 0 1 0 -15.5 0zM720.75 263.5 a7.75 7.75 0 1 0 15.5 0 a7.75 7.75 0 1 0 -15.5 0zM193.75 263.5 a7.75 7.75 0 1 0 15.5 0 a7.75 7.75 0 1 0 -15.5 0zM69.75 232.5 a7.75 7.75 0 1 0 15.5 0 a7.75 7.75 0 1 0 -15.5 0zM348.75 325.5 a7.75 7.75 0 1 0 15.5 0 a7.75 7.75 0 1 0 -15.5 0zM69.75 356.5 a7.75 7.75 0 1 0 15.5 0 a7.75 7.75 0 1 0 -15.5 0zM379.75 263.5 a7.75 7.75 0 1 0 15.5 0 a7.75 7.75 0 1 0 -15.5 0zM906.75 201.5 a7.75 7.75 0 1 0 15.5 0 a7.75 7.75 0 1 0 -15.5 0zM503.75 325.5 a7.75 7.75 0 1 0 15.5 0 a7.75 7.75 0 1 0 -15.5 0z" fill="url(#SvgjsRadialGradient3202)"></path>
            <path d="M1193.5 325.5L1162.5 356.5M759.5 294.5L728.5 325.5L697.5 325.5L666.5 325.5L635.5 325.5M852.5 294.5L821.5 325.5L790.5 325.5L759.5 325.5M1069.5 294.5L1038.5 325.5L1007.5 325.5L976.5 325.5M1131.5 325.5L1100.5 325.5M1255.5 325.5L1224.5 294.5L1193.5 294.5L1162.5 294.5M1472.5 325.5L1441.5 325.5L1410.5 356.5L1379.5 356.5L1348.5 356.5L1317.5 356.5L1286.5 356.5L1255.5 325.5L1224.5 325.5L1193.5 325.5L1162.5 325.5L1131.5 325.5L1100.5 294.5L1069.5 294.5L1038.5 294.5L1007.5 294.5L976.5 294.5L945.5 294.5L914.5 294.5L883.5 294.5L852.5 294.5L821.5 294.5L790.5 294.5L759.5 294.5L728.5 294.5" stroke="url(#SvgjsRadialGradient3202)" stroke-width="5.17"></path>
            <path d="M720.75 294.5 a7.75 7.75 0 1 0 15.5 0 a7.75 7.75 0 1 0 -15.5 0zM1154.75 356.5 a7.75 7.75 0 1 0 15.5 0 a7.75 7.75 0 1 0 -15.5 0zM627.75 325.5 a7.75 7.75 0 1 0 15.5 0 a7.75 7.75 0 1 0 -15.5 0zM751.75 325.5 a7.75 7.75 0 1 0 15.5 0 a7.75 7.75 0 1 0 -15.5 0zM968.75 325.5 a7.75 7.75 0 1 0 15.5 0 a7.75 7.75 0 1 0 -15.5 0zM1092.75 325.5 a7.75 7.75 0 1 0 15.5 0 a7.75 7.75 0 1 0 -15.5 0zM1154.75 294.5 a7.75 7.75 0 1 0 15.5 0 a7.75 7.75 0 1 0 -15.5 0z" fill="url(#SvgjsRadialGradient3202)"></path>
            <path d="M914.5 170.5L883.5 170.5M1038.5 201.5L1007.5 201.5M1472.5 232.5L1441.5 232.5L1410.5 232.5L1379.5 232.5L1348.5 232.5L1317.5 232.5L1286.5 232.5L1255.5 201.5L1224.5 201.5L1193.5 201.5L1162.5 201.5L1131.5 201.5L1100.5 201.5L1069.5 201.5L1038.5 201.5L1007.5 170.5L976.5 170.5L945.5 170.5L914.5 170.5L883.5 139.5L852.5 139.5" stroke="url(#SvgjsRadialGradient3202)" stroke-width="5.17"></path>
            <path d="M844.75 139.5 a7.75 7.75 0 1 0 15.5 0 a7.75 7.75 0 1 0 -15.5 0zM875.75 170.5 a7.75 7.75 0 1 0 15.5 0 a7.75 7.75 0 1 0 -15.5 0zM999.75 201.5 a7.75 7.75 0 1 0 15.5 0 a7.75 7.75 0 1 0 -15.5 0z" fill="url(#SvgjsRadialGradient3202)"></path>
            <path d="M790.5 418.5L759.5 449.5L728.5 449.5L697.5 449.5M1193.5 387.5L1162.5 418.5L1131.5 418.5M1379.5 387.5L1348.5 418.5L1317.5 418.5M914.5 418.5L883.5 387.5L852.5 387.5L821.5 387.5M1100.5 418.5L1069.5 387.5L1038.5 387.5L1007.5 387.5M1286.5 387.5L1255.5 418.5L1224.5 418.5L1193.5 418.5M1472.5 356.5L1441.5 356.5L1410.5 387.5L1379.5 387.5L1348.5 387.5L1317.5 387.5L1286.5 387.5L1255.5 387.5L1224.5 387.5L1193.5 387.5L1162.5 387.5L1131.5 387.5L1100.5 418.5L1069.5 418.5L1038.5 418.5L1007.5 418.5L976.5 418.5L945.5 418.5L914.5 418.5L883.5 418.5L852.5 418.5L821.5 418.5L790.5 418.5L759.5 418.5L728.5 418.5L697.5 418.5" stroke="url(#SvgjsRadialGradient3202)" stroke-width="5.17"></path>
            <path d="M689.75 418.5 a7.75 7.75 0 1 0 15.5 0 a7.75 7.75 0 1 0 -15.5 0zM689.75 449.5 a7.75 7.75 0 1 0 15.5 0 a7.75 7.75 0 1 0 -15.5 0zM1123.75 418.5 a7.75 7.75 0 1 0 15.5 0 a7.75 7.75 0 1 0 -15.5 0zM1309.75 418.5 a7.75 7.75 0 1 0 15.5 0 a7.75 7.75 0 1 0 -15.5 0zM813.75 387.5 a7.75 7.75 0 1 0 15.5 0 a7.75 7.75 0 1 0 -15.5 0zM999.75 387.5 a7.75 7.75 0 1 0 15.5 0 a7.75 7.75 0 1 0 -15.5 0zM1185.75 418.5 a7.75 7.75 0 1 0 15.5 0 a7.75 7.75 0 1 0 -15.5 0z" fill="url(#SvgjsRadialGradient3202)"></path>
            <path d="M728.5 108.5L697.5 139.5L666.5 170.5L635.5 170.5L604.5 170.5L573.5 139.5M852.5 108.5L821.5 108.5L790.5 108.5M666.5 139.5L635.5 108.5L604.5 108.5L573.5 108.5L542.5 108.5L511.5 108.5L480.5 108.5L449.5 108.5L418.5 108.5L387.5 108.5M759.5 108.5L728.5 139.5L697.5 170.5M790.5 139.5L759.5 139.5M697.5 108.5L666.5 108.5M821.5 139.5L790.5 170.5M1472.5 201.5L1441.5 201.5L1410.5 201.5L1379.5 201.5L1348.5 201.5L1317.5 201.5L1286.5 201.5L1255.5 170.5L1224.5 170.5L1193.5 170.5L1162.5 170.5L1131.5 170.5L1100.5 170.5L1069.5 170.5L1038.5 170.5L1007.5 139.5L976.5 139.5L945.5 139.5L914.5 139.5L883.5 108.5L852.5 108.5L821.5 139.5L790.5 139.5L759.5 108.5L728.5 108.5L697.5 108.5L666.5 139.5L635.5 139.5" stroke="url(#SvgjsRadialGradient3202)" stroke-width="5.17"></path>
            <path d="M627.75 139.5 a7.75 7.75 0 1 0 15.5 0 a7.75 7.75 0 1 0 -15.5 0zM565.75 139.5 a7.75 7.75 0 1 0 15.5 0 a7.75 7.75 0 1 0 -15.5 0zM782.75 108.5 a7.75 7.75 0 1 0 15.5 0 a7.75 7.75 0 1 0 -15.5 0zM379.75 108.5 a7.75 7.75 0 1 0 15.5 0 a7.75 7.75 0 1 0 -15.5 0zM689.75 170.5 a7.75 7.75 0 1 0 15.5 0 a7.75 7.75 0 1 0 -15.5 0zM751.75 139.5 a7.75 7.75 0 1 0 15.5 0 a7.75 7.75 0 1 0 -15.5 0zM658.75 108.5 a7.75 7.75 0 1 0 15.5 0 a7.75 7.75 0 1 0 -15.5 0zM782.75 170.5 a7.75 7.75 0 1 0 15.5 0 a7.75 7.75 0 1 0 -15.5 0z" fill="url(#SvgjsRadialGradient3202)"></path>
            <path d="M1410.5 418.5L1379.5 418.5M1286.5 449.5L1255.5 480.5L1224.5 480.5L1193.5 480.5M1162.5 449.5L1131.5 480.5L1100.5 480.5L1069.5 480.5M945.5 449.5L914.5 480.5L883.5 480.5M1472.5 387.5L1441.5 387.5L1410.5 418.5L1379.5 449.5L1348.5 449.5L1317.5 449.5L1286.5 449.5L1255.5 449.5L1224.5 449.5L1193.5 449.5L1162.5 449.5L1131.5 449.5L1100.5 449.5L1069.5 449.5L1038.5 449.5L1007.5 449.5L976.5 449.5L945.5 449.5L914.5 449.5" stroke="url(#SvgjsRadialGradient3202)" stroke-width="5.17"></path>
            <path d="M906.75 449.5 a7.75 7.75 0 1 0 15.5 0 a7.75 7.75 0 1 0 -15.5 0zM1371.75 418.5 a7.75 7.75 0 1 0 15.5 0 a7.75 7.75 0 1 0 -15.5 0zM1185.75 480.5 a7.75 7.75 0 1 0 15.5 0 a7.75 7.75 0 1 0 -15.5 0zM1061.75 480.5 a7.75 7.75 0 1 0 15.5 0 a7.75 7.75 0 1 0 -15.5 0zM875.75 480.5 a7.75 7.75 0 1 0 15.5 0 a7.75 7.75 0 1 0 -15.5 0z" fill="url(#SvgjsRadialGradient3202)"></path>
            <path d="M1441.5 170.5L1410.5 139.5L1379.5 139.5L1348.5 139.5L1317.5 139.5L1286.5 139.5L1255.5 108.5L1224.5 108.5L1193.5 108.5L1162.5 77.5L1131.5 77.5L1100.5 77.5L1069.5 77.5L1038.5 77.5M1007.5 108.5L976.5 77.5L945.5 77.5L914.5 77.5M1131.5 139.5L1100.5 108.5L1069.5 108.5L1038.5 108.5M1162.5 139.5L1131.5 108.5M1472.5 170.5L1441.5 170.5L1410.5 170.5L1379.5 170.5L1348.5 170.5L1317.5 170.5L1286.5 170.5L1255.5 139.5L1224.5 139.5L1193.5 139.5L1162.5 139.5L1131.5 139.5L1100.5 139.5L1069.5 139.5L1038.5 139.5L1007.5 108.5L976.5 108.5L945.5 108.5L914.5 108.5L883.5 77.5L852.5 77.5L821.5 77.5L790.5 77.5L759.5 77.5L728.5 77.5L697.5 77.5L666.5 77.5L635.5 77.5L604.5 77.5L573.5 77.5L542.5 77.5L511.5 77.5L480.5 77.5L449.5 77.5L418.5 77.5" stroke="url(#SvgjsRadialGradient3202)" stroke-width="5.17"></path>
            <path d="M410.75 77.5 a7.75 7.75 0 1 0 15.5 0 a7.75 7.75 0 1 0 -15.5 0zM1030.75 77.5 a7.75 7.75 0 1 0 15.5 0 a7.75 7.75 0 1 0 -15.5 0zM906.75 77.5 a7.75 7.75 0 1 0 15.5 0 a7.75 7.75 0 1 0 -15.5 0zM1030.75 108.5 a7.75 7.75 0 1 0 15.5 0 a7.75 7.75 0 1 0 -15.5 0zM1123.75 108.5 a7.75 7.75 0 1 0 15.5 0 a7.75 7.75 0 1 0 -15.5 0z" fill="url(#SvgjsRadialGradient3202)"></path>
        </g>
    </g>
    <defs>
        <mask id="SvgjsMask3201">
            <rect width="1440" height="560" fill="#ffffff"></rect>
        </mask>
        <radialGradient cx="1440" cy="280" r="1466.97" gradientUnits="userSpaceOnUse" id="SvgjsRadialGradient3202">
            <stop stop-color="rgba(5, 216, 255, 0.08)" offset="0"></stop>
            <stop stop-color="rgba(221, 17, 163, 0.1)" offset="1"></stop>
        </radialGradient>
        <mask id="SvgjsMask3203">
            <rect width="1440" height="560" fill="white"></rect>
            <path d="M786.62 263.5 a3.88 3.88 0 1 0 7.76 0 a3.88 3.88 0 1 0 -7.76 0zM1282.62 325.5 a3.88 3.88 0 1 0 7.76 0 a3.88 3.88 0 1 0 -7.76 0zM1344.62 294.5 a3.88 3.88 0 1 0 7.76 0 a3.88 3.88 0 1 0 -7.76 0zM1127.62 294.5 a3.88 3.88 0 1 0 7.76 0 a3.88 3.88 0 1 0 -7.76 0zM1406.62 294.5 a3.88 3.88 0 1 0 7.76 0 a3.88 3.88 0 1 0 -7.76 0z" fill="black"></path>
            <path d="M135.62 263.5 a3.88 3.88 0 1 0 7.76 0 a3.88 3.88 0 1 0 -7.76 0zM414.62 232.5 a3.88 3.88 0 1 0 7.76 0 a3.88 3.88 0 1 0 -7.76 0zM414.62 170.5 a3.88 3.88 0 1 0 7.76 0 a3.88 3.88 0 1 0 -7.76 0zM476.62 325.5 a3.88 3.88 0 1 0 7.76 0 a3.88 3.88 0 1 0 -7.76 0zM724.62 263.5 a3.88 3.88 0 1 0 7.76 0 a3.88 3.88 0 1 0 -7.76 0zM197.62 263.5 a3.88 3.88 0 1 0 7.76 0 a3.88 3.88 0 1 0 -7.76 0zM73.62 232.5 a3.88 3.88 0 1 0 7.76 0 a3.88 3.88 0 1 0 -7.76 0zM352.62 325.5 a3.88 3.88 0 1 0 7.76 0 a3.88 3.88 0 1 0 -7.76 0zM73.62 356.5 a3.88 3.88 0 1 0 7.76 0 a3.88 3.88 0 1 0 -7.76 0zM383.62 263.5 a3.88 3.88 0 1 0 7.76 0 a3.88 3.88 0 1 0 -7.76 0zM910.62 201.5 a3.88 3.88 0 1 0 7.76 0 a3.88 3.88 0 1 0 -7.76 0zM507.62 325.5 a3.88 3.88 0 1 0 7.76 0 a3.88 3.88 0 1 0 -7.76 0z" fill="black"></path>
            <path d="M724.62 294.5 a3.88 3.88 0 1 0 7.76 0 a3.88 3.88 0 1 0 -7.76 0zM1158.62 356.5 a3.88 3.88 0 1 0 7.76 0 a3.88 3.88 0 1 0 -7.76 0zM631.62 325.5 a3.88 3.88 0 1 0 7.76 0 a3.88 3.88 0 1 0 -7.76 0zM755.62 325.5 a3.88 3.88 0 1 0 7.76 0 a3.88 3.88 0 1 0 -7.76 0zM972.62 325.5 a3.88 3.88 0 1 0 7.76 0 a3.88 3.88 0 1 0 -7.76 0zM1096.62 325.5 a3.88 3.88 0 1 0 7.76 0 a3.88 3.88 0 1 0 -7.76 0zM1158.62 294.5 a3.88 3.88 0 1 0 7.76 0 a3.88 3.88 0 1 0 -7.76 0z" fill="black"></path>
            <path d="M848.62 139.5 a3.88 3.88 0 1 0 7.76 0 a3.88 3.88 0 1 0 -7.76 0zM879.62 170.5 a3.88 3.88 0 1 0 7.76 0 a3.88 3.88 0 1 0 -7.76 0zM1003.62 201.5 a3.88 3.88 0 1 0 7.76 0 a3.88 3.88 0 1 0 -7.76 0z" fill="black"></path>
            <path d="M693.62 418.5 a3.88 3.88 0 1 0 7.76 0 a3.88 3.88 0 1 0 -7.76 0zM693.62 449.5 a3.88 3.88 0 1 0 7.76 0 a3.88 3.88 0 1 0 -7.76 0zM1127.62 418.5 a3.88 3.88 0 1 0 7.76 0 a3.88 3.88 0 1 0 -7.76 0zM1313.62 418.5 a3.88 3.88 0 1 0 7.76 0 a3.88 3.88 0 1 0 -7.76 0zM817.62 387.5 a3.88 3.88 0 1 0 7.76 0 a3.88 3.88 0 1 0 -7.76 0zM1003.62 387.5 a3.88 3.88 0 1 0 7.76 0 a3.88 3.88 0 1 0 -7.76 0zM1189.62 418.5 a3.88 3.88 0 1 0 7.76 0 a3.88 3.88 0 1 0 -7.76 0z" fill="black"></path>
            <path d="M631.62 139.5 a3.88 3.88 0 1 0 7.76 0 a3.88 3.88 0 1 0 -7.76 0zM569.62 139.5 a3.88 3.88 0 1 0 7.76 0 a3.88 3.88 0 1 0 -7.76 0zM786.62 108.5 a3.88 3.88 0 1 0 7.76 0 a3.88 3.88 0 1 0 -7.76 0zM383.62 108.5 a3.88 3.88 0 1 0 7.76 0 a3.88 3.88 0 1 0 -7.76 0zM693.62 170.5 a3.88 3.88 0 1 0 7.76 0 a3.88 3.88 0 1 0 -7.76 0zM755.62 139.5 a3.88 3.88 0 1 0 7.76 0 a3.88 3.88 0 1 0 -7.76 0zM662.62 108.5 a3.88 3.88 0 1 0 7.76 0 a3.88 3.88 0 1 0 -7.76 0zM786.62 170.5 a3.88 3.88 0 1 0 7.76 0 a3.88 3.88 0 1 0 -7.76 0z" fill="black"></path>
            <path d="M910.62 449.5 a3.88 3.88 0 1 0 7.76 0 a3.88 3.88 0 1 0 -7.76 0zM1375.62 418.5 a3.88 3.88 0 1 0 7.76 0 a3.88 3.88 0 1 0 -7.76 0zM1189.62 480.5 a3.88 3.88 0 1 0 7.76 0 a3.88 3.88 0 1 0 -7.76 0zM1065.62 480.5 a3.88 3.88 0 1 0 7.76 0 a3.88 3.88 0 1 0 -7.76 0zM879.62 480.5 a3.88 3.88 0 1 0 7.76 0 a3.88 3.88 0 1 0 -7.76 0z" fill="black"></path>
            <path d="M414.62 77.5 a3.88 3.88 0 1 0 7.76 0 a3.88 3.88 0 1 0 -7.76 0zM1034.62 77.5 a3.88 3.88 0 1 0 7.76 0 a3.88 3.88 0 1 0 -7.76 0zM910.62 77.5 a3.88 3.88 0 1 0 7.76 0 a3.88 3.88 0 1 0 -7.76 0zM1034.62 108.5 a3.88 3.88 0 1 0 7.76 0 a3.88 3.88 0 1 0 -7.76 0zM1127.62 108.5 a3.88 3.88 0 1 0 7.76 0 a3.88 3.88 0 1 0 -7.76 0z" fill="black"></path>
        </mask>
    </defs>
</svg>