<?xml version="1.0" standalone="no"?>
<!DOCTYPE svg PUBLIC "-//W3C//DTD SVG 20010904//EN"
 "http://www.w3.org/TR/2001/REC-SVG-20010904/DTD/svg10.dtd">
<svg version="1.0" xmlns="http://www.w3.org/2000/svg"
 width="1168.000000pt" height="1168.000000pt" viewBox="0 0 1168.000000 1168.000000"
 preserveAspectRatio="xMidYMid meet">
<metadata>
Created by potrace 1.14, written by Peter Selinger 2001-2017
</metadata>
<g transform="translate(0.000000,1168.000000) scale(0.100000,-0.100000)"
fill="#000000" stroke="none">
<path d="M2426 8382 c-12 -3 -16 -10 -13 -23 3 -10 2 -19 -2 -19 -4 0 -7 -22
-6 -50 1 -30 -3 -50 -9 -50 -6 0 -5 -4 3 -9 7 -5 9 -11 4 -14 -6 -4 -11 -30
-12 -60 -1 -29 -3 -62 -5 -73 -2 -11 -7 -60 -11 -110 -7 -90 -11 -136 -20
-221 -5 -50 -10 -106 -20 -233 -3 -41 -8 -93 -11 -115 -6 -51 -13 -124 -19
-200 -3 -33 -8 -89 -11 -125 -3 -36 -7 -89 -8 -117 0 -29 -3 -53 -6 -53 -3 0
-5 -12 -6 -27 -1 -30 -10 -137 -19 -218 -13 -124 -16 -164 -19 -215 -2 -30 -5
-55 -5 -55 -1 0 -3 -25 -6 -55 -2 -30 -6 -82 -9 -115 -11 -115 -18 -200 -19
-252 -1 -29 -4 -53 -7 -53 -3 0 -6 -17 -6 -38 -1 -20 -5 -66 -9 -102 -4 -36
-8 -85 -10 -110 -1 -25 -6 -76 -10 -115 -5 -38 -9 -89 -9 -112 -1 -24 -3 -43
-6 -43 -3 0 -5 -17 -6 -38 -2 -80 -12 -193 -18 -199 -3 -3 -1 -15 5 -26 6 -10
7 -17 2 -14 -6 4 -11 -13 -12 -36 -1 -23 -4 -58 -6 -77 -2 -19 -6 -66 -10
-105 -3 -38 -8 -92 -10 -120 -15 -146 -15 -176 -4 -169 8 4 9 3 5 -5 -6 -9
-11 -9 -22 0 -8 6 -12 14 -10 17 3 2 0 14 -6 26 -7 11 -13 26 -15 31 -1 6 -4
17 -6 25 -2 8 -7 22 -10 30 -3 8 -13 40 -22 70 -10 30 -26 78 -36 105 -10 28
-21 65 -24 83 -4 19 -11 30 -17 26 -6 -4 -8 -3 -5 3 3 5 -3 38 -14 74 -12 35
-22 69 -23 74 -2 6 -6 17 -9 25 -3 8 -11 33 -18 55 -6 22 -15 45 -20 51 -5 6
-7 13 -4 16 3 3 -3 26 -14 52 -11 25 -18 46 -16 46 4 0 -3 22 -31 95 -9 26 -9
25 -18 57 -5 16 -12 26 -16 23 -4 -2 -5 7 -2 22 3 17 1 24 -6 19 -6 -4 -8 2
-5 14 3 11 1 20 -5 20 -5 0 -9 6 -9 13 2 25 -16 87 -25 87 -5 0 -7 3 -5 8 3 4
0 18 -6 32 -12 29 -18 50 -19 68 -1 6 -4 12 -8 12 -3 0 -7 8 -7 18 -1 9 -29
98 -63 197 -65 195 -71 214 -72 233 -1 6 -3 12 -5 12 -6 0 -47 -94 -45 -102 1
-5 -3 -8 -9 -8 -5 0 -8 -4 -5 -9 4 -5 2 -11 -2 -13 -8 -3 -83 -152 -82 -163 0
-3 -8 -14 -17 -24 -10 -11 -27 -42 -38 -70 -11 -28 -23 -51 -27 -51 -4 0 -7
-3 -6 -7 1 -7 -21 -58 -41 -93 -42 -76 -131 -256 -131 -267 0 -6 -4 -13 -9
-15 -5 -1 -11 -10 -13 -18 -2 -8 -5 -17 -8 -20 -16 -15 -80 -152 -75 -160 3
-5 -1 -7 -9 -4 -8 3 -32 40 -53 82 -20 43 -41 79 -45 80 -4 2 -8 9 -8 16 0 25
-32 76 -42 70 -7 -5 -8 -2 -3 5 7 12 -40 119 -58 132 -5 3 -8 9 -8 13 2 12
-34 86 -41 86 -5 0 -8 5 -8 12 0 23 -104 217 -114 211 -5 -3 -6 -1 -2 5 6 11
-22 82 -37 93 -5 3 -9 13 -11 21 -1 8 -9 27 -19 41 -9 15 -17 29 -17 31 0 5
-16 38 -86 178 -13 27 -24 51 -23 54 0 4 -3 10 -8 13 -10 8 -96 177 -94 186 1
3 -7 17 -18 32 -12 14 -18 29 -15 34 3 5 1 9 -3 9 -5 0 -14 9 -21 21 -11 17
-11 20 0 13 7 -4 5 2 -5 13 -10 12 -19 27 -20 35 -2 7 -10 24 -20 38 -9 13
-17 29 -17 35 0 6 -7 20 -15 33 l-16 22 -69 -35 c-50 -25 -68 -39 -64 -50 4
-8 11 -12 17 -8 6 3 7 1 3 -5 -3 -6 11 -45 33 -86 22 -42 37 -76 34 -76 -3 0
1 -8 9 -17 8 -10 20 -33 28 -50 7 -18 17 -33 23 -33 6 0 8 -3 5 -6 -7 -6 80
-186 94 -195 6 -3 9 -9 8 -13 -3 -13 24 -64 32 -60 4 3 5 -2 2 -10 -3 -8 3
-23 13 -33 10 -10 18 -22 18 -28 0 -16 57 -130 67 -133 4 -2 8 -12 8 -23 0
-10 5 -19 10 -19 6 0 10 -6 10 -12 0 -16 42 -102 53 -106 4 -2 7 -9 7 -15 0
-20 107 -226 114 -220 3 4 6 -1 6 -11 0 -21 58 -138 74 -148 6 -4 8 -8 3 -8
-9 0 102 -223 117 -232 6 -4 8 -8 4 -8 -10 0 72 -164 84 -168 4 -2 5 -8 2 -14
-4 -6 -3 -13 2 -17 14 -10 34 -49 34 -66 0 -8 5 -15 10 -15 6 0 10 -6 10 -13
0 -7 5 -18 12 -25 9 -9 19 4 45 58 18 38 34 73 35 77 1 5 6 13 10 18 23 26
137 268 131 278 -3 5 -1 7 4 4 6 -4 17 8 24 26 7 17 15 34 18 37 12 11 31 50
31 65 0 8 3 15 8 15 9 0 48 92 43 105 -1 5 1 7 5 2 7 -7 83 137 82 157 0 5 4
12 9 15 4 3 18 27 31 54 13 26 26 47 29 47 4 0 4 -3 0 -6 -3 -4 0 -22 8 -40 8
-19 12 -34 10 -34 -2 0 7 -27 20 -59 13 -33 20 -62 17 -65 -3 -3 0 -6 7 -6 7
0 9 -4 6 -10 -3 -5 -3 -16 2 -22 4 -7 8 -15 8 -18 1 -3 14 -45 30 -95 16 -49
30 -93 31 -97 1 -5 2 -9 4 -10 1 -2 3 -10 6 -18 8 -32 56 -176 64 -195 9 -20
17 -48 25 -82 10 -42 51 -149 60 -155 5 -4 7 -10 3 -13 -3 -4 3 -32 14 -63 11
-31 21 -64 23 -72 2 -8 10 -34 19 -57 8 -24 13 -43 10 -43 -2 0 3 -11 12 -24
8 -14 15 -27 15 -31 -3 -15 12 -55 21 -55 5 0 7 -4 4 -8 -5 -8 15 -88 33 -127
5 -11 19 -56 32 -100 12 -44 26 -84 29 -90 4 -5 13 -31 20 -57 8 -30 17 -45
24 -41 8 4 8 3 0 -6 -16 -18 5 -58 33 -64 12 -2 25 -1 29 2 6 6 12 7 71 10 18
0 32 4 32 9 -1 4 0 9 1 12 1 3 4 29 5 58 2 29 6 59 9 67 3 8 0 15 -7 15 -9 0
-9 2 -1 8 6 4 14 50 18 103 4 52 8 106 11 120 2 13 6 58 10 99 3 41 8 91 9
110 2 19 7 69 10 110 9 99 15 173 22 240 7 61 10 101 18 205 3 39 8 90 10 115
3 25 8 72 11 105 4 32 9 64 12 69 4 5 1 6 -7 1 -9 -5 -11 -4 -6 4 10 15 14 41
21 141 3 47 8 110 11 140 3 30 6 73 7 95 2 22 6 46 10 53 5 7 3 12 -5 12 -9 0
-9 3 -2 8 6 4 11 32 11 62 1 30 2 55 3 55 3 0 8 34 15 120 4 50 9 106 10 125
6 59 20 216 30 350 2 25 7 70 10 100 9 86 10 92 31 330 3 36 8 85 10 110 2 25
5 61 8 80 2 19 7 76 11 126 3 51 8 100 10 110 2 11 4 34 4 53 1 19 4 31 8 27
9 -9 11 -18 27 -141 4 -27 10 -59 13 -70 4 -11 8 -29 9 -40 11 -77 12 -82 29
-180 2 -11 4 -20 5 -20 1 0 3 -13 5 -30 2 -16 6 -41 8 -55 3 -14 8 -43 12 -65
4 -22 13 -46 19 -54 9 -12 8 -13 -3 -7 -10 7 -12 4 -7 -12 7 -22 11 -41 20
-93 5 -32 20 -111 33 -169 3 -14 6 -29 7 -35 1 -5 4 -14 7 -20 3 -5 6 -25 8
-44 2 -19 8 -46 14 -60 5 -14 9 -30 8 -35 -1 -5 5 -38 14 -74 19 -74 24 -96
30 -132 9 -56 16 -86 22 -100 7 -17 9 -29 18 -87 3 -24 10 -43 14 -43 5 0 7
-11 6 -25 -2 -14 0 -25 4 -25 4 0 7 -12 8 -27 1 -16 3 -35 5 -43 3 -8 8 -36
13 -62 4 -27 12 -48 17 -48 5 0 7 -4 4 -9 -6 -9 24 -159 48 -246 1 -5 7 -32
11 -60 5 -27 10 -52 11 -55 0 -3 5 -20 9 -37 4 -18 10 -33 14 -34 3 -1 38 -2
77 -4 l72 -3 7 31 c4 18 9 34 10 37 15 38 43 136 47 165 2 11 6 22 9 25 3 3
11 25 18 50 7 25 17 61 22 80 6 19 11 42 13 50 1 9 4 20 8 25 3 6 9 24 13 40
12 45 12 44 35 120 12 39 22 78 23 88 1 9 4 17 7 17 4 0 7 6 8 13 1 18 9 49
21 80 6 15 10 31 9 35 -1 4 2 14 5 22 15 34 55 184 51 191 -2 4 0 9 5 11 6 1
12 14 14 28 3 14 10 37 16 53 6 15 8 27 6 27 -3 0 2 16 10 36 8 20 12 40 9 45
-3 5 0 9 7 9 6 0 9 8 6 20 -3 11 -2 20 2 20 4 0 13 24 20 53 8 28 16 57 20 62
6 12 11 31 14 62 1 13 5 23 10 23 4 0 7 6 7 14 0 12 22 92 38 136 2 8 6 23 7
32 2 19 13 34 18 27 8 -9 57 -140 57 -150 0 -6 6 -25 14 -42 8 -18 25 -61 37
-97 12 -36 26 -69 31 -74 4 -6 8 -20 8 -31 0 -12 3 -25 7 -29 4 -3 8 -16 10
-29 2 -12 8 -26 13 -31 6 -6 10 -18 10 -28 0 -10 5 -18 12 -18 6 0 9 -3 5 -6
-3 -3 1 -25 10 -47 8 -23 16 -49 18 -57 2 -8 4 -16 5 -17 4 -4 23 -95 25 -118
1 -5 7 -28 13 -50 6 -22 13 -51 16 -65 2 -14 10 -47 16 -75 7 -27 14 -63 16
-78 2 -16 6 -33 10 -38 3 -5 8 -22 11 -37 8 -41 11 -57 13 -57 2 0 6 -17 14
-60 3 -16 10 -44 15 -62 5 -17 7 -34 3 -37 -3 -3 0 -6 7 -6 7 0 10 -4 7 -9 -3
-4 1 -33 8 -62 8 -30 17 -71 20 -93 4 -21 9 -43 12 -48 3 -5 8 -24 11 -41 3
-18 8 -39 13 -47 4 -8 6 -23 5 -32 -2 -10 1 -18 6 -18 6 0 8 -4 5 -8 -3 -5 1
-32 9 -61 15 -59 15 -58 15 -72 0 -5 6 -7 13 -3 8 5 8 2 -2 -9 -7 -10 -9 -17
-3 -17 6 0 9 -8 7 -17 -1 -10 0 -22 4 -28 7 -12 6 -8 16 -72 4 -29 11 -53 14
-53 4 0 7 -8 7 -17 1 -10 4 -30 8 -45 3 -16 8 -40 11 -56 3 -15 8 -38 12 -52
8 -31 12 -49 16 -75 2 -11 6 -26 11 -33 4 -6 5 -12 2 -12 -2 0 0 -15 5 -32 6
-18 12 -42 14 -53 3 -11 9 -41 15 -66 6 -26 13 -55 15 -65 2 -11 4 -19 5 -19
1 0 3 -7 5 -15 11 -49 16 -73 20 -98 3 -15 8 -34 12 -42 3 -8 7 -22 8 -30 1
-8 8 -42 15 -75 17 -73 17 -74 20 -77 1 -2 3 -12 5 -23 2 -11 7 -36 11 -55 5
-19 8 -42 9 -50 0 -8 3 -14 8 -13 4 1 39 7 77 13 79 13 79 12 55 103 -8 32
-15 69 -15 82 0 14 -4 25 -8 25 -4 0 -9 16 -10 37 -2 20 -5 40 -8 45 -4 5 -15
48 -25 96 -11 48 -21 94 -23 102 -6 20 -23 97 -31 135 -3 17 -7 35 -9 40 -1 6
-8 37 -15 70 -7 33 -16 71 -21 85 -5 14 -11 39 -14 55 -2 17 -5 30 -6 30 -2 0
-6 18 -14 62 -3 18 -10 42 -15 55 -5 13 -9 25 -9 28 -1 32 -16 101 -23 105 -4
3 -5 13 -2 22 4 9 2 14 -3 11 -5 -4 -10 6 -11 20 -1 31 -9 77 -18 112 -4 14
-8 38 -11 53 -2 16 -6 33 -10 38 -3 5 -8 22 -11 37 -8 41 -11 57 -13 60 -3 3
-3 2 -20 87 -8 39 -13 73 -12 78 1 4 -2 7 -8 7 -6 0 -9 3 -8 8 4 14 -24 142
-31 138 -3 -2 -7 10 -7 27 -1 30 -10 82 -14 82 -1 0 -4 11 -5 25 -4 27 -12 63
-15 68 -3 3 -3 2 -20 85 -7 37 -18 67 -22 67 -5 0 -6 4 -3 10 3 5 -1 35 -9 67
-7 32 -20 86 -27 120 -7 34 -16 60 -21 57 -4 -3 -5 2 -2 10 3 8 -1 30 -10 48
-8 18 -21 53 -30 78 -8 25 -27 77 -41 115 -15 39 -28 75 -29 80 -2 6 -6 19
-10 30 -5 11 -12 31 -16 45 -4 14 -12 34 -16 45 -4 11 -8 22 -8 25 -1 6 -15
41 -47 125 -13 33 -24 62 -24 65 -5 28 -30 90 -37 90 -5 0 -7 4 -3 9 4 8 -7
44 -40 126 -10 25 -16 46 -17 63 -1 6 -5 12 -10 12 -4 0 -8 8 -8 18 0 10 -3
22 -7 26 -4 3 -8 16 -10 28 -2 12 -8 25 -14 29 -6 3 -10 9 -10 13 5 34 -3 32
-14 -3 -8 -25 -11 -49 -8 -54 3 -6 1 -7 -4 -4 -6 4 -14 -11 -18 -36 -5 -23 -9
-44 -10 -47 -1 -3 -4 -12 -8 -20 -7 -19 -30 -92 -33 -105 -1 -5 -4 -21 -7 -35
-3 -14 -14 -52 -25 -85 -11 -33 -41 -134 -67 -225 -26 -91 -50 -172 -53 -180
-5 -14 -11 -40 -14 -67 -1 -7 -6 -13 -11 -13 -5 0 -3 -8 4 -17 9 -10 9 -14 2
-10 -8 5 -16 -6 -23 -35 -6 -24 -16 -59 -23 -78 -6 -19 -12 -39 -13 -45 -2 -5
-10 -35 -19 -65 -9 -30 -18 -64 -18 -75 -1 -11 -7 -26 -14 -32 -6 -7 -10 -26
-9 -42 1 -16 -2 -28 -6 -25 -4 3 -8 2 -9 -3 -1 -12 -15 -63 -40 -150 -6 -21
-11 -46 -12 -55 -1 -10 -5 -18 -10 -18 -5 0 -7 -9 -4 -20 3 -11 2 -20 -3 -20
-4 0 -11 -15 -15 -32 -4 -18 -8 -35 -9 -38 -1 -3 -5 -11 -9 -17 -5 -7 -6 -13
-3 -13 3 0 1 -12 -5 -27 -6 -16 -13 -36 -15 -45 -2 -10 -7 -28 -10 -40 -3 -13
-6 -29 -6 -35 -1 -7 -5 -13 -10 -13 -5 0 -8 -6 -6 -14 2 -8 -1 -16 -6 -18 -11
-3 -23 36 -32 102 -3 25 -10 47 -15 48 -5 2 -7 8 -4 13 3 5 1 28 -6 51 -7 24
-13 52 -15 63 -4 37 -9 50 -19 57 -6 5 -5 8 4 8 10 0 11 3 2 14 -7 8 -13 28
-13 45 -1 18 -5 28 -11 24 -6 -3 -8 -2 -4 3 4 8 -2 53 -18 119 -8 34 -15 68
-21 105 -3 19 -8 38 -10 41 -2 3 -6 21 -9 40 -9 46 -13 64 -15 64 -1 0 -3 9
-5 20 -5 26 -17 86 -22 105 -2 8 -4 23 -5 33 -1 9 -6 17 -11 17 -4 0 -6 4 -3
8 3 4 1 26 -5 48 -5 21 -12 59 -15 84 -3 24 -7 47 -9 50 -3 5 -12 56 -19 110
-13 89 -20 120 -30 120 -6 0 -4 5 4 10 8 5 10 10 3 10 -6 0 -9 9 -5 22 4 15 2
19 -7 13 -10 -6 -11 -3 -2 12 6 11 8 22 6 25 -7 6 -28 119 -27 141 0 9 -2 17
-6 17 -4 0 -8 12 -8 28 -2 32 -10 88 -18 122 -4 14 -9 41 -11 60 -3 19 -8 51
-10 70 -6 40 -13 75 -15 75 -1 0 -4 18 -6 40 -5 44 -11 79 -15 83 -3 4 -5 17
-13 85 -5 37 -12 70 -17 72 -4 3 -5 13 -2 21 3 9 0 20 -8 25 -10 6 -10 9 -2 9
9 0 10 7 3 25 -5 13 -10 40 -12 60 -1 19 -6 35 -11 35 -4 0 -5 5 -2 10 4 6 4
23 0 39 -6 27 -8 28 -68 27 -35 0 -71 -2 -81 -4z"/>
<path d="M5960 7510 c-81 -22 -112 -36 -175 -79 -168 -115 -292 -348 -350
-656 -15 -82 -18 -270 -18 -1090 0 -760 3 -973 18 -1065 12 -79 21 -114 56
-220 67 -202 175 -355 312 -443 39 -25 144 -64 198 -73 49 -8 1579 -12 1580
-4 5 42 0 432 -5 437 -4 4 -281 8 -614 9 l-607 0 -47 23 c-75 36 -156 145
-183 246 -5 17 -9 33 -10 38 -2 4 -3 8 -5 10 -3 4 -10 43 -18 104 -10 74 -8
1894 2 1938 28 127 77 239 131 302 18 21 54 49 81 63 l49 24 607 1 c333 0 609
3 613 7 6 5 10 371 6 436 -1 10 -159 12 -778 11 -710 -1 -784 -3 -843 -19z"/>
<path d="M8069 7513 c-1 -24 -1 -404 0 -423 1 -14 47 -15 377 -15 207 0 378
-4 381 -8 4 -7 7 -2618 4 -2719 -1 -17 -26 -18 -381 -18 -355 0 -380 -1 -381
-17 -4 -74 -1 -424 3 -428 4 -5 1229 -7 2143 -5 l91 0 -1 223 0 222 -382 3
-382 2 2 1372 2 1372 378 1 c327 0 378 2 381 15 2 8 3 110 2 225 l-1 210
-1117 3 c-1060 2 -1118 1 -1119 -15z"/>
</g>
</svg>
